<svg xmlns="http://www.w3.org/2000/svg" xmlns:xlink="http://www.w3.org/1999/xlink" width="340" height="240" viewBox="0 0 340 240">
  <defs>
    <clipPath id="clip-path">
      <rect width="340" height="240" fill="none"/>
    </clipPath>
  </defs>
  <g id="gc-b" clip-path="url(#clip-path)">
    <g transform="translate(-733 -476)">
      <circle id="Ellipse_2" data-name="Ellipse 2" cx="6" cy="6" r="6" transform="translate(733 476)" fill="rgba(83,206,248,0.35)"/>
    </g>
    <g transform="translate(-701 -476)">
      <circle id="Ellipse_2-2" data-name="Ellipse 2" cx="6" cy="6" r="6" transform="translate(733 476)" fill="rgba(83,206,248,0.35)"/>
    </g>
    <g transform="translate(-669 -476)">
      <circle id="Ellipse_2-3" data-name="Ellipse 2" cx="6" cy="6" r="6" transform="translate(733 476)" fill="rgba(83,206,248,0.35)"/>
    </g>
    <g transform="translate(-637 -476)">
      <circle id="Ellipse_2-4" data-name="Ellipse 2" cx="6" cy="6" r="6" transform="translate(733 476)" fill="rgba(83,206,248,0.35)"/>
    </g>
    <g transform="translate(-605 -476)">
      <circle id="Ellipse_2-5" data-name="Ellipse 2" cx="6" cy="6" r="6" transform="translate(733 476)" fill="rgba(83,206,248,0.35)"/>
    </g>
    <g transform="translate(-573 -476)">
      <circle id="Ellipse_2-6" data-name="Ellipse 2" cx="6" cy="6" r="6" transform="translate(733 476)" fill="rgba(83,206,248,0.35)"/>
    </g>
    <g transform="translate(-541 -476)">
      <circle id="Ellipse_2-7" data-name="Ellipse 2" cx="6" cy="6" r="6" transform="translate(733 476)" fill="rgba(83,206,248,0.35)"/>
    </g>
    <g transform="translate(-509 -476)">
      <circle id="Ellipse_2-8" data-name="Ellipse 2" cx="6" cy="6" r="6" transform="translate(733 476)" fill="rgba(83,206,248,0.35)"/>
    </g>
    <g transform="translate(-477 -476)">
      <circle id="Ellipse_2-9" data-name="Ellipse 2" cx="6" cy="6" r="6" transform="translate(733 476)" fill="rgba(83,206,248,0.35)"/>
    </g>
    <g transform="translate(-445 -476)">
      <circle id="Ellipse_2-10" data-name="Ellipse 2" cx="6" cy="6" r="6" transform="translate(733 476)" fill="rgba(83,206,248,0.35)"/>
    </g>
    <g transform="translate(-413 -476)">
      <circle id="Ellipse_2-11" data-name="Ellipse 2" cx="6" cy="6" r="6" transform="translate(733 476)" fill="rgba(83,206,248,0.35)"/>
    </g>
    <g transform="translate(-733 -444)">
      <circle id="Ellipse_2-12" data-name="Ellipse 2" cx="6" cy="6" r="6" transform="translate(733 476)" fill="rgba(83,206,248,0.35)"/>
    </g>
    <g transform="translate(-701 -444)">
      <circle id="Ellipse_2-13" data-name="Ellipse 2" cx="6" cy="6" r="6" transform="translate(733 476)" fill="rgba(83,206,248,0.35)"/>
    </g>
    <g transform="translate(-669 -444)">
      <circle id="Ellipse_2-14" data-name="Ellipse 2" cx="6" cy="6" r="6" transform="translate(733 476)" fill="rgba(83,206,248,0.35)"/>
    </g>
    <g transform="translate(-637 -444)">
      <circle id="Ellipse_2-15" data-name="Ellipse 2" cx="6" cy="6" r="6" transform="translate(733 476)" fill="rgba(83,206,248,0.35)"/>
    </g>
    <g transform="translate(-605 -444)">
      <circle id="Ellipse_2-16" data-name="Ellipse 2" cx="6" cy="6" r="6" transform="translate(733 476)" fill="rgba(83,206,248,0.35)"/>
    </g>
    <g transform="translate(-573 -444)">
      <circle id="Ellipse_2-17" data-name="Ellipse 2" cx="6" cy="6" r="6" transform="translate(733 476)" fill="rgba(83,206,248,0.35)"/>
    </g>
    <g transform="translate(-541 -444)">
      <circle id="Ellipse_2-18" data-name="Ellipse 2" cx="6" cy="6" r="6" transform="translate(733 476)" fill="rgba(83,206,248,0.35)"/>
    </g>
    <g transform="translate(-509 -444)">
      <circle id="Ellipse_2-19" data-name="Ellipse 2" cx="6" cy="6" r="6" transform="translate(733 476)" fill="rgba(83,206,248,0.35)"/>
    </g>
    <g transform="translate(-477 -444)">
      <circle id="Ellipse_2-20" data-name="Ellipse 2" cx="6" cy="6" r="6" transform="translate(733 476)" fill="rgba(83,206,248,0.35)"/>
    </g>
    <g transform="translate(-445 -444)">
      <circle id="Ellipse_2-21" data-name="Ellipse 2" cx="6" cy="6" r="6" transform="translate(733 476)" fill="rgba(83,206,248,0.35)"/>
    </g>
    <g transform="translate(-413 -444)">
      <circle id="Ellipse_2-22" data-name="Ellipse 2" cx="6" cy="6" r="6" transform="translate(733 476)" fill="rgba(83,206,248,0.35)"/>
    </g>
    <g transform="translate(-733 -412)">
      <circle id="Ellipse_2-23" data-name="Ellipse 2" cx="6" cy="6" r="6" transform="translate(733 476)" fill="rgba(83,206,248,0.35)"/>
    </g>
    <g transform="translate(-701 -412)">
      <circle id="Ellipse_2-24" data-name="Ellipse 2" cx="6" cy="6" r="6" transform="translate(733 476)" fill="rgba(83,206,248,0.35)"/>
    </g>
    <g transform="translate(-669 -412)">
      <circle id="Ellipse_2-25" data-name="Ellipse 2" cx="6" cy="6" r="6" transform="translate(733 476)" fill="rgba(83,206,248,0.35)"/>
    </g>
    <g transform="translate(-637 -412)">
      <circle id="Ellipse_2-26" data-name="Ellipse 2" cx="6" cy="6" r="6" transform="translate(733 476)" fill="rgba(83,206,248,0.35)"/>
    </g>
    <g transform="translate(-605 -412)">
      <circle id="Ellipse_2-27" data-name="Ellipse 2" cx="6" cy="6" r="6" transform="translate(733 476)" fill="rgba(83,206,248,0.35)"/>
    </g>
    <g transform="translate(-573 -412)">
      <circle id="Ellipse_2-28" data-name="Ellipse 2" cx="6" cy="6" r="6" transform="translate(733 476)" fill="rgba(83,206,248,0.35)"/>
    </g>
    <g transform="translate(-541 -412)">
      <circle id="Ellipse_2-29" data-name="Ellipse 2" cx="6" cy="6" r="6" transform="translate(733 476)" fill="rgba(83,206,248,0.35)"/>
    </g>
    <g transform="translate(-509 -412)">
      <circle id="Ellipse_2-30" data-name="Ellipse 2" cx="6" cy="6" r="6" transform="translate(733 476)" fill="rgba(83,206,248,0.35)"/>
    </g>
    <g transform="translate(-477 -412)">
      <circle id="Ellipse_2-31" data-name="Ellipse 2" cx="6" cy="6" r="6" transform="translate(733 476)" fill="rgba(83,206,248,0.35)"/>
    </g>
    <g transform="translate(-445 -412)">
      <circle id="Ellipse_2-32" data-name="Ellipse 2" cx="6" cy="6" r="6" transform="translate(733 476)" fill="rgba(83,206,248,0.35)"/>
    </g>
    <g transform="translate(-413 -412)">
      <circle id="Ellipse_2-33" data-name="Ellipse 2" cx="6" cy="6" r="6" transform="translate(733 476)" fill="rgba(83,206,248,0.35)"/>
    </g>
    <g transform="translate(-733 -380)">
      <circle id="Ellipse_2-34" data-name="Ellipse 2" cx="6" cy="6" r="6" transform="translate(733 476)" fill="rgba(83,206,248,0.35)"/>
    </g>
    <g transform="translate(-701 -380)">
      <circle id="Ellipse_2-35" data-name="Ellipse 2" cx="6" cy="6" r="6" transform="translate(733 476)" fill="rgba(83,206,248,0.35)"/>
    </g>
    <g transform="translate(-669 -380)">
      <circle id="Ellipse_2-36" data-name="Ellipse 2" cx="6" cy="6" r="6" transform="translate(733 476)" fill="rgba(83,206,248,0.35)"/>
    </g>
    <g transform="translate(-637 -380)">
      <circle id="Ellipse_2-37" data-name="Ellipse 2" cx="6" cy="6" r="6" transform="translate(733 476)" fill="rgba(83,206,248,0.35)"/>
    </g>
    <g transform="translate(-605 -380)">
      <circle id="Ellipse_2-38" data-name="Ellipse 2" cx="6" cy="6" r="6" transform="translate(733 476)" fill="rgba(83,206,248,0.35)"/>
    </g>
    <g transform="translate(-573 -380)">
      <circle id="Ellipse_2-39" data-name="Ellipse 2" cx="6" cy="6" r="6" transform="translate(733 476)" fill="rgba(83,206,248,0.35)"/>
    </g>
    <g transform="translate(-541 -380)">
      <circle id="Ellipse_2-40" data-name="Ellipse 2" cx="6" cy="6" r="6" transform="translate(733 476)" fill="rgba(83,206,248,0.35)"/>
    </g>
    <g transform="translate(-509 -380)">
      <circle id="Ellipse_2-41" data-name="Ellipse 2" cx="6" cy="6" r="6" transform="translate(733 476)" fill="rgba(83,206,248,0.35)"/>
    </g>
    <g transform="translate(-477 -380)">
      <circle id="Ellipse_2-42" data-name="Ellipse 2" cx="6" cy="6" r="6" transform="translate(733 476)" fill="rgba(83,206,248,0.35)"/>
    </g>
    <g transform="translate(-445 -380)">
      <circle id="Ellipse_2-43" data-name="Ellipse 2" cx="6" cy="6" r="6" transform="translate(733 476)" fill="rgba(83,206,248,0.35)"/>
    </g>
    <g transform="translate(-413 -380)">
      <circle id="Ellipse_2-44" data-name="Ellipse 2" cx="6" cy="6" r="6" transform="translate(733 476)" fill="rgba(83,206,248,0.35)"/>
    </g>
    <g transform="translate(-733 -348)">
      <circle id="Ellipse_2-45" data-name="Ellipse 2" cx="6" cy="6" r="6" transform="translate(733 476)" fill="rgba(83,206,248,0.35)"/>
    </g>
    <g transform="translate(-701 -348)">
      <circle id="Ellipse_2-46" data-name="Ellipse 2" cx="6" cy="6" r="6" transform="translate(733 476)" fill="rgba(83,206,248,0.35)"/>
    </g>
    <g transform="translate(-669 -348)">
      <circle id="Ellipse_2-47" data-name="Ellipse 2" cx="6" cy="6" r="6" transform="translate(733 476)" fill="rgba(83,206,248,0.35)"/>
    </g>
    <g transform="translate(-637 -348)">
      <circle id="Ellipse_2-48" data-name="Ellipse 2" cx="6" cy="6" r="6" transform="translate(733 476)" fill="rgba(83,206,248,0.35)"/>
    </g>
    <g transform="translate(-605 -348)">
      <circle id="Ellipse_2-49" data-name="Ellipse 2" cx="6" cy="6" r="6" transform="translate(733 476)" fill="rgba(83,206,248,0.35)"/>
    </g>
    <g transform="translate(-573 -348)">
      <circle id="Ellipse_2-50" data-name="Ellipse 2" cx="6" cy="6" r="6" transform="translate(733 476)" fill="rgba(83,206,248,0.35)"/>
    </g>
    <g transform="translate(-541 -348)">
      <circle id="Ellipse_2-51" data-name="Ellipse 2" cx="6" cy="6" r="6" transform="translate(733 476)" fill="rgba(83,206,248,0.35)"/>
    </g>
    <g transform="translate(-509 -348)">
      <circle id="Ellipse_2-52" data-name="Ellipse 2" cx="6" cy="6" r="6" transform="translate(733 476)" fill="rgba(83,206,248,0.35)"/>
    </g>
    <g transform="translate(-477 -348)">
      <circle id="Ellipse_2-53" data-name="Ellipse 2" cx="6" cy="6" r="6" transform="translate(733 476)" fill="rgba(83,206,248,0.35)"/>
    </g>
    <g transform="translate(-445 -348)">
      <circle id="Ellipse_2-54" data-name="Ellipse 2" cx="6" cy="6" r="6" transform="translate(733 476)" fill="rgba(83,206,248,0.35)"/>
    </g>
    <g transform="translate(-413 -348)">
      <circle id="Ellipse_2-55" data-name="Ellipse 2" cx="6" cy="6" r="6" transform="translate(733 476)" fill="rgba(83,206,248,0.35)"/>
    </g>
    <g transform="translate(-733 -316)">
      <circle id="Ellipse_2-56" data-name="Ellipse 2" cx="6" cy="6" r="6" transform="translate(733 476)" fill="rgba(83,206,248,0.35)"/>
    </g>
    <g transform="translate(-701 -316)">
      <circle id="Ellipse_2-57" data-name="Ellipse 2" cx="6" cy="6" r="6" transform="translate(733 476)" fill="rgba(83,206,248,0.35)"/>
    </g>
    <g transform="translate(-669 -316)">
      <circle id="Ellipse_2-58" data-name="Ellipse 2" cx="6" cy="6" r="6" transform="translate(733 476)" fill="rgba(83,206,248,0.35)"/>
    </g>
    <g transform="translate(-637 -316)">
      <circle id="Ellipse_2-59" data-name="Ellipse 2" cx="6" cy="6" r="6" transform="translate(733 476)" fill="rgba(83,206,248,0.35)"/>
    </g>
    <g transform="translate(-605 -316)">
      <circle id="Ellipse_2-60" data-name="Ellipse 2" cx="6" cy="6" r="6" transform="translate(733 476)" fill="rgba(83,206,248,0.35)"/>
    </g>
    <g transform="translate(-573 -316)">
      <circle id="Ellipse_2-61" data-name="Ellipse 2" cx="6" cy="6" r="6" transform="translate(733 476)" fill="rgba(83,206,248,0.35)"/>
    </g>
    <g transform="translate(-541 -316)">
      <circle id="Ellipse_2-62" data-name="Ellipse 2" cx="6" cy="6" r="6" transform="translate(733 476)" fill="rgba(83,206,248,0.35)"/>
    </g>
    <g transform="translate(-509 -316)">
      <circle id="Ellipse_2-63" data-name="Ellipse 2" cx="6" cy="6" r="6" transform="translate(733 476)" fill="rgba(83,206,248,0.35)"/>
    </g>
    <g transform="translate(-477 -316)">
      <circle id="Ellipse_2-64" data-name="Ellipse 2" cx="6" cy="6" r="6" transform="translate(733 476)" fill="rgba(83,206,248,0.35)"/>
    </g>
    <g transform="translate(-445 -316)">
      <circle id="Ellipse_2-65" data-name="Ellipse 2" cx="6" cy="6" r="6" transform="translate(733 476)" fill="rgba(83,206,248,0.35)"/>
    </g>
    <g transform="translate(-413 -316)">
      <circle id="Ellipse_2-66" data-name="Ellipse 2" cx="6" cy="6" r="6" transform="translate(733 476)" fill="rgba(83,206,248,0.35)"/>
    </g>
    <g transform="translate(-733 -284)">
      <circle id="Ellipse_2-67" data-name="Ellipse 2" cx="6" cy="6" r="6" transform="translate(733 476)" fill="rgba(83,206,248,0.35)"/>
    </g>
    <g transform="translate(-701 -284)">
      <circle id="Ellipse_2-68" data-name="Ellipse 2" cx="6" cy="6" r="6" transform="translate(733 476)" fill="rgba(83,206,248,0.35)"/>
    </g>
    <g transform="translate(-669 -284)">
      <circle id="Ellipse_2-69" data-name="Ellipse 2" cx="6" cy="6" r="6" transform="translate(733 476)" fill="rgba(83,206,248,0.35)"/>
    </g>
    <g transform="translate(-637 -284)">
      <circle id="Ellipse_2-70" data-name="Ellipse 2" cx="6" cy="6" r="6" transform="translate(733 476)" fill="rgba(83,206,248,0.35)"/>
    </g>
    <g transform="translate(-605 -284)">
      <circle id="Ellipse_2-71" data-name="Ellipse 2" cx="6" cy="6" r="6" transform="translate(733 476)" fill="rgba(83,206,248,0.35)"/>
    </g>
    <g transform="translate(-573 -284)">
      <circle id="Ellipse_2-72" data-name="Ellipse 2" cx="6" cy="6" r="6" transform="translate(733 476)" fill="rgba(83,206,248,0.35)"/>
    </g>
    <g transform="translate(-541 -284)">
      <circle id="Ellipse_2-73" data-name="Ellipse 2" cx="6" cy="6" r="6" transform="translate(733 476)" fill="rgba(83,206,248,0.35)"/>
    </g>
    <g transform="translate(-509 -284)">
      <circle id="Ellipse_2-74" data-name="Ellipse 2" cx="6" cy="6" r="6" transform="translate(733 476)" fill="rgba(83,206,248,0.35)"/>
    </g>
    <g transform="translate(-477 -284)">
      <circle id="Ellipse_2-75" data-name="Ellipse 2" cx="6" cy="6" r="6" transform="translate(733 476)" fill="rgba(83,206,248,0.35)"/>
    </g>
    <g transform="translate(-445 -284)">
      <circle id="Ellipse_2-76" data-name="Ellipse 2" cx="6" cy="6" r="6" transform="translate(733 476)" fill="rgba(83,206,248,0.35)"/>
    </g>
    <g transform="translate(-413 -284)">
      <circle id="Ellipse_2-77" data-name="Ellipse 2" cx="6" cy="6" r="6" transform="translate(733 476)" fill="rgba(83,206,248,0.35)"/>
    </g>
    <g transform="translate(-733 -252)">
      <circle id="Ellipse_2-78" data-name="Ellipse 2" cx="6" cy="6" r="6" transform="translate(733 476)" fill="rgba(83,206,248,0.35)"/>
    </g>
    <g transform="translate(-701 -252)">
      <circle id="Ellipse_2-79" data-name="Ellipse 2" cx="6" cy="6" r="6" transform="translate(733 476)" fill="rgba(83,206,248,0.35)"/>
    </g>
    <g transform="translate(-669 -252)">
      <circle id="Ellipse_2-80" data-name="Ellipse 2" cx="6" cy="6" r="6" transform="translate(733 476)" fill="rgba(83,206,248,0.35)"/>
    </g>
    <g transform="translate(-637 -252)">
      <circle id="Ellipse_2-81" data-name="Ellipse 2" cx="6" cy="6" r="6" transform="translate(733 476)" fill="rgba(83,206,248,0.35)"/>
    </g>
    <g transform="translate(-605 -252)">
      <circle id="Ellipse_2-82" data-name="Ellipse 2" cx="6" cy="6" r="6" transform="translate(733 476)" fill="rgba(83,206,248,0.35)"/>
    </g>
    <g transform="translate(-573 -252)">
      <circle id="Ellipse_2-83" data-name="Ellipse 2" cx="6" cy="6" r="6" transform="translate(733 476)" fill="rgba(83,206,248,0.35)"/>
    </g>
    <g transform="translate(-541 -252)">
      <circle id="Ellipse_2-84" data-name="Ellipse 2" cx="6" cy="6" r="6" transform="translate(733 476)" fill="rgba(83,206,248,0.35)"/>
    </g>
    <g transform="translate(-509 -252)">
      <circle id="Ellipse_2-85" data-name="Ellipse 2" cx="6" cy="6" r="6" transform="translate(733 476)" fill="rgba(83,206,248,0.35)"/>
    </g>
    <g transform="translate(-477 -252)">
      <circle id="Ellipse_2-86" data-name="Ellipse 2" cx="6" cy="6" r="6" transform="translate(733 476)" fill="rgba(83,206,248,0.35)"/>
    </g>
    <g transform="translate(-445 -252)">
      <circle id="Ellipse_2-87" data-name="Ellipse 2" cx="6" cy="6" r="6" transform="translate(733 476)" fill="rgba(83,206,248,0.35)"/>
    </g>
    <g transform="translate(-413 -252)">
      <circle id="Ellipse_2-88" data-name="Ellipse 2" cx="6" cy="6" r="6" transform="translate(733 476)" fill="rgba(83,206,248,0.35)"/>
    </g>
  </g>
</svg>
