<svg xmlns="http://www.w3.org/2000/svg" xmlns:xlink="http://www.w3.org/1999/xlink" width="327" height="202" viewBox="0 0 327 202">
  <defs>
    <clipPath id="clip-path">
      <rect width="327" height="202" fill="none"/>
    </clipPath>
  </defs>
  <g id="gc-lt" clip-path="url(#clip-path)">
    <g transform="translate(-331 -98)">
      <circle id="Ellipse_1" data-name="Ellipse 1" cx="5.5" cy="5.5" r="5.5" transform="translate(331 98)" fill="rgba(83,206,248,0.46)"/>
    </g>
    <g transform="translate(-300 -98)">
      <circle id="Ellipse_1-2" data-name="Ellipse 1" cx="5.5" cy="5.5" r="5.5" transform="translate(331 98)" fill="rgba(83,206,248,0.46)"/>
    </g>
    <g transform="translate(-269 -98)">
      <circle id="Ellipse_1-3" data-name="Ellipse 1" cx="5.5" cy="5.5" r="5.5" transform="translate(331 98)" fill="rgba(83,206,248,0.46)"/>
    </g>
    <g transform="translate(-238 -98)">
      <circle id="Ellipse_1-4" data-name="Ellipse 1" cx="5.5" cy="5.5" r="5.5" transform="translate(331 98)" fill="rgba(83,206,248,0.46)"/>
    </g>
    <g transform="translate(-207 -98)">
      <circle id="Ellipse_1-5" data-name="Ellipse 1" cx="5.5" cy="5.5" r="5.5" transform="translate(331 98)" fill="rgba(83,206,248,0.46)"/>
    </g>
    <g transform="translate(-176 -98)">
      <circle id="Ellipse_1-6" data-name="Ellipse 1" cx="5.5" cy="5.5" r="5.5" transform="translate(331 98)" fill="rgba(83,206,248,0.46)"/>
    </g>
    <g transform="translate(-145 -98)">
      <circle id="Ellipse_1-7" data-name="Ellipse 1" cx="5.5" cy="5.5" r="5.5" transform="translate(331 98)" fill="rgba(83,206,248,0.46)"/>
    </g>
    <g transform="translate(-114 -98)">
      <circle id="Ellipse_1-8" data-name="Ellipse 1" cx="5.5" cy="5.5" r="5.5" transform="translate(331 98)" fill="rgba(83,206,248,0.46)"/>
    </g>
    <g transform="translate(-83 -98)">
      <circle id="Ellipse_1-9" data-name="Ellipse 1" cx="5.5" cy="5.5" r="5.5" transform="translate(331 98)" fill="rgba(83,206,248,0.46)"/>
    </g>
    <g transform="translate(-52 -98)">
      <circle id="Ellipse_1-10" data-name="Ellipse 1" cx="5.5" cy="5.5" r="5.5" transform="translate(331 98)" fill="rgba(83,206,248,0.46)"/>
    </g>
    <g transform="translate(-21 -98)">
      <circle id="Ellipse_1-11" data-name="Ellipse 1" cx="5.5" cy="5.5" r="5.5" transform="translate(331 98)" fill="rgba(83,206,248,0.46)"/>
    </g>
    <g transform="translate(-331 -67)">
      <circle id="Ellipse_1-12" data-name="Ellipse 1" cx="5.5" cy="5.5" r="5.5" transform="translate(331 98)" fill="rgba(83,206,248,0.46)"/>
    </g>
    <g transform="translate(-300 -67)">
      <circle id="Ellipse_1-13" data-name="Ellipse 1" cx="5.5" cy="5.5" r="5.5" transform="translate(331 98)" fill="rgba(83,206,248,0.46)"/>
    </g>
    <g transform="translate(-269 -67)">
      <circle id="Ellipse_1-14" data-name="Ellipse 1" cx="5.5" cy="5.5" r="5.5" transform="translate(331 98)" fill="rgba(83,206,248,0.46)"/>
    </g>
    <g transform="translate(-238 -67)">
      <circle id="Ellipse_1-15" data-name="Ellipse 1" cx="5.5" cy="5.5" r="5.5" transform="translate(331 98)" fill="rgba(83,206,248,0.46)"/>
    </g>
    <g transform="translate(-207 -67)">
      <circle id="Ellipse_1-16" data-name="Ellipse 1" cx="5.5" cy="5.5" r="5.5" transform="translate(331 98)" fill="rgba(83,206,248,0.46)"/>
    </g>
    <g transform="translate(-176 -67)">
      <circle id="Ellipse_1-17" data-name="Ellipse 1" cx="5.5" cy="5.5" r="5.5" transform="translate(331 98)" fill="rgba(83,206,248,0.46)"/>
    </g>
    <g transform="translate(-145 -67)">
      <circle id="Ellipse_1-18" data-name="Ellipse 1" cx="5.5" cy="5.5" r="5.5" transform="translate(331 98)" fill="rgba(83,206,248,0.46)"/>
    </g>
    <g transform="translate(-114 -67)">
      <circle id="Ellipse_1-19" data-name="Ellipse 1" cx="5.5" cy="5.5" r="5.5" transform="translate(331 98)" fill="rgba(83,206,248,0.46)"/>
    </g>
    <g transform="translate(-83 -67)">
      <circle id="Ellipse_1-20" data-name="Ellipse 1" cx="5.5" cy="5.5" r="5.5" transform="translate(331 98)" fill="rgba(83,206,248,0.46)"/>
    </g>
    <g transform="translate(-52 -67)">
      <circle id="Ellipse_1-21" data-name="Ellipse 1" cx="5.5" cy="5.5" r="5.5" transform="translate(331 98)" fill="rgba(83,206,248,0.46)"/>
    </g>
    <g transform="translate(-21 -67)">
      <circle id="Ellipse_1-22" data-name="Ellipse 1" cx="5.5" cy="5.5" r="5.5" transform="translate(331 98)" fill="rgba(83,206,248,0.46)"/>
    </g>
    <g transform="translate(-331 -36)">
      <circle id="Ellipse_1-23" data-name="Ellipse 1" cx="5.5" cy="5.5" r="5.5" transform="translate(331 98)" fill="rgba(83,206,248,0.46)"/>
    </g>
    <g transform="translate(-300 -36)">
      <circle id="Ellipse_1-24" data-name="Ellipse 1" cx="5.5" cy="5.5" r="5.5" transform="translate(331 98)" fill="rgba(83,206,248,0.46)"/>
    </g>
    <g transform="translate(-269 -36)">
      <circle id="Ellipse_1-25" data-name="Ellipse 1" cx="5.5" cy="5.5" r="5.5" transform="translate(331 98)" fill="rgba(83,206,248,0.46)"/>
    </g>
    <g transform="translate(-238 -36)">
      <circle id="Ellipse_1-26" data-name="Ellipse 1" cx="5.5" cy="5.5" r="5.5" transform="translate(331 98)" fill="rgba(83,206,248,0.46)"/>
    </g>
    <g transform="translate(-207 -36)">
      <circle id="Ellipse_1-27" data-name="Ellipse 1" cx="5.5" cy="5.5" r="5.5" transform="translate(331 98)" fill="rgba(83,206,248,0.46)"/>
    </g>
    <g transform="translate(-176 -36)">
      <circle id="Ellipse_1-28" data-name="Ellipse 1" cx="5.5" cy="5.5" r="5.5" transform="translate(331 98)" fill="rgba(83,206,248,0.46)"/>
    </g>
    <g transform="translate(-145 -36)">
      <circle id="Ellipse_1-29" data-name="Ellipse 1" cx="5.5" cy="5.5" r="5.5" transform="translate(331 98)" fill="rgba(83,206,248,0.46)"/>
    </g>
    <g transform="translate(-114 -36)">
      <circle id="Ellipse_1-30" data-name="Ellipse 1" cx="5.5" cy="5.5" r="5.5" transform="translate(331 98)" fill="rgba(83,206,248,0.46)"/>
    </g>
    <g transform="translate(-83 -36)">
      <circle id="Ellipse_1-31" data-name="Ellipse 1" cx="5.5" cy="5.5" r="5.5" transform="translate(331 98)" fill="rgba(83,206,248,0.46)"/>
    </g>
    <g transform="translate(-52 -36)">
      <circle id="Ellipse_1-32" data-name="Ellipse 1" cx="5.5" cy="5.5" r="5.5" transform="translate(331 98)" fill="rgba(83,206,248,0.46)"/>
    </g>
    <g transform="translate(-21 -36)">
      <circle id="Ellipse_1-33" data-name="Ellipse 1" cx="5.5" cy="5.5" r="5.5" transform="translate(331 98)" fill="rgba(83,206,248,0.46)"/>
    </g>
    <g transform="translate(-331 -5)">
      <circle id="Ellipse_1-34" data-name="Ellipse 1" cx="5.5" cy="5.5" r="5.5" transform="translate(331 98)" fill="rgba(83,206,248,0.46)"/>
    </g>
    <g transform="translate(-300 -5)">
      <circle id="Ellipse_1-35" data-name="Ellipse 1" cx="5.5" cy="5.5" r="5.5" transform="translate(331 98)" fill="rgba(83,206,248,0.46)"/>
    </g>
    <g transform="translate(-269 -5)">
      <circle id="Ellipse_1-36" data-name="Ellipse 1" cx="5.5" cy="5.5" r="5.5" transform="translate(331 98)" fill="rgba(83,206,248,0.46)"/>
    </g>
    <g transform="translate(-238 -5)">
      <circle id="Ellipse_1-37" data-name="Ellipse 1" cx="5.5" cy="5.5" r="5.5" transform="translate(331 98)" fill="rgba(83,206,248,0.46)"/>
    </g>
    <g transform="translate(-207 -5)">
      <circle id="Ellipse_1-38" data-name="Ellipse 1" cx="5.5" cy="5.5" r="5.5" transform="translate(331 98)" fill="rgba(83,206,248,0.46)"/>
    </g>
    <g transform="translate(-176 -5)">
      <circle id="Ellipse_1-39" data-name="Ellipse 1" cx="5.5" cy="5.5" r="5.5" transform="translate(331 98)" fill="rgba(83,206,248,0.46)"/>
    </g>
    <g transform="translate(-145 -5)">
      <circle id="Ellipse_1-40" data-name="Ellipse 1" cx="5.5" cy="5.5" r="5.5" transform="translate(331 98)" fill="rgba(83,206,248,0.46)"/>
    </g>
    <g transform="translate(-114 -5)">
      <circle id="Ellipse_1-41" data-name="Ellipse 1" cx="5.5" cy="5.5" r="5.5" transform="translate(331 98)" fill="rgba(83,206,248,0.46)"/>
    </g>
    <g transform="translate(-83 -5)">
      <circle id="Ellipse_1-42" data-name="Ellipse 1" cx="5.5" cy="5.5" r="5.5" transform="translate(331 98)" fill="rgba(83,206,248,0.46)"/>
    </g>
    <g transform="translate(-52 -5)">
      <circle id="Ellipse_1-43" data-name="Ellipse 1" cx="5.5" cy="5.5" r="5.5" transform="translate(331 98)" fill="rgba(83,206,248,0.46)"/>
    </g>
    <g transform="translate(-21 -5)">
      <circle id="Ellipse_1-44" data-name="Ellipse 1" cx="5.5" cy="5.5" r="5.5" transform="translate(331 98)" fill="rgba(83,206,248,0.46)"/>
    </g>
    <g transform="translate(-331 26)">
      <circle id="Ellipse_1-45" data-name="Ellipse 1" cx="5.5" cy="5.5" r="5.5" transform="translate(331 98)" fill="rgba(83,206,248,0.46)"/>
    </g>
    <g transform="translate(-300 26)">
      <circle id="Ellipse_1-46" data-name="Ellipse 1" cx="5.5" cy="5.5" r="5.5" transform="translate(331 98)" fill="rgba(83,206,248,0.46)"/>
    </g>
    <g transform="translate(-269 26)">
      <circle id="Ellipse_1-47" data-name="Ellipse 1" cx="5.5" cy="5.5" r="5.5" transform="translate(331 98)" fill="rgba(83,206,248,0.46)"/>
    </g>
    <g transform="translate(-238 26)">
      <circle id="Ellipse_1-48" data-name="Ellipse 1" cx="5.5" cy="5.5" r="5.5" transform="translate(331 98)" fill="rgba(83,206,248,0.46)"/>
    </g>
    <g transform="translate(-207 26)">
      <circle id="Ellipse_1-49" data-name="Ellipse 1" cx="5.5" cy="5.5" r="5.5" transform="translate(331 98)" fill="rgba(83,206,248,0.46)"/>
    </g>
    <g transform="translate(-176 26)">
      <circle id="Ellipse_1-50" data-name="Ellipse 1" cx="5.5" cy="5.5" r="5.5" transform="translate(331 98)" fill="rgba(83,206,248,0.46)"/>
    </g>
    <g transform="translate(-145 26)">
      <circle id="Ellipse_1-51" data-name="Ellipse 1" cx="5.5" cy="5.5" r="5.5" transform="translate(331 98)" fill="rgba(83,206,248,0.46)"/>
    </g>
    <g transform="translate(-114 26)">
      <circle id="Ellipse_1-52" data-name="Ellipse 1" cx="5.5" cy="5.5" r="5.5" transform="translate(331 98)" fill="rgba(83,206,248,0.46)"/>
    </g>
    <g transform="translate(-83 26)">
      <circle id="Ellipse_1-53" data-name="Ellipse 1" cx="5.5" cy="5.5" r="5.5" transform="translate(331 98)" fill="rgba(83,206,248,0.46)"/>
    </g>
    <g transform="translate(-52 26)">
      <circle id="Ellipse_1-54" data-name="Ellipse 1" cx="5.5" cy="5.5" r="5.5" transform="translate(331 98)" fill="rgba(83,206,248,0.46)"/>
    </g>
    <g transform="translate(-21 26)">
      <circle id="Ellipse_1-55" data-name="Ellipse 1" cx="5.5" cy="5.5" r="5.5" transform="translate(331 98)" fill="rgba(83,206,248,0.46)"/>
    </g>
    <g transform="translate(-331 57)">
      <circle id="Ellipse_1-56" data-name="Ellipse 1" cx="5.5" cy="5.5" r="5.5" transform="translate(331 98)" fill="rgba(83,206,248,0.46)"/>
    </g>
    <g transform="translate(-300 57)">
      <circle id="Ellipse_1-57" data-name="Ellipse 1" cx="5.5" cy="5.5" r="5.5" transform="translate(331 98)" fill="rgba(83,206,248,0.46)"/>
    </g>
    <g transform="translate(-269 57)">
      <circle id="Ellipse_1-58" data-name="Ellipse 1" cx="5.5" cy="5.5" r="5.5" transform="translate(331 98)" fill="rgba(83,206,248,0.46)"/>
    </g>
    <g transform="translate(-238 57)">
      <circle id="Ellipse_1-59" data-name="Ellipse 1" cx="5.5" cy="5.5" r="5.5" transform="translate(331 98)" fill="rgba(83,206,248,0.46)"/>
    </g>
    <g transform="translate(-207 57)">
      <circle id="Ellipse_1-60" data-name="Ellipse 1" cx="5.5" cy="5.5" r="5.5" transform="translate(331 98)" fill="rgba(83,206,248,0.46)"/>
    </g>
    <g transform="translate(-176 57)">
      <circle id="Ellipse_1-61" data-name="Ellipse 1" cx="5.5" cy="5.5" r="5.5" transform="translate(331 98)" fill="rgba(83,206,248,0.46)"/>
    </g>
    <g transform="translate(-145 57)">
      <circle id="Ellipse_1-62" data-name="Ellipse 1" cx="5.5" cy="5.5" r="5.5" transform="translate(331 98)" fill="rgba(83,206,248,0.46)"/>
    </g>
    <g transform="translate(-114 57)">
      <circle id="Ellipse_1-63" data-name="Ellipse 1" cx="5.5" cy="5.5" r="5.5" transform="translate(331 98)" fill="rgba(83,206,248,0.46)"/>
    </g>
    <g transform="translate(-83 57)">
      <circle id="Ellipse_1-64" data-name="Ellipse 1" cx="5.5" cy="5.5" r="5.5" transform="translate(331 98)" fill="rgba(83,206,248,0.46)"/>
    </g>
    <g transform="translate(-52 57)">
      <circle id="Ellipse_1-65" data-name="Ellipse 1" cx="5.5" cy="5.5" r="5.5" transform="translate(331 98)" fill="rgba(83,206,248,0.46)"/>
    </g>
    <g transform="translate(-21 57)">
      <circle id="Ellipse_1-66" data-name="Ellipse 1" cx="5.5" cy="5.5" r="5.5" transform="translate(331 98)" fill="rgba(83,206,248,0.46)"/>
    </g>
    <g transform="translate(-331 88)">
      <circle id="Ellipse_1-67" data-name="Ellipse 1" cx="5.5" cy="5.5" r="5.5" transform="translate(331 98)" fill="rgba(83,206,248,0.46)"/>
    </g>
    <g transform="translate(-300 88)">
      <circle id="Ellipse_1-68" data-name="Ellipse 1" cx="5.5" cy="5.5" r="5.5" transform="translate(331 98)" fill="rgba(83,206,248,0.46)"/>
    </g>
    <g transform="translate(-269 88)">
      <circle id="Ellipse_1-69" data-name="Ellipse 1" cx="5.5" cy="5.5" r="5.5" transform="translate(331 98)" fill="rgba(83,206,248,0.46)"/>
    </g>
    <g transform="translate(-238 88)">
      <circle id="Ellipse_1-70" data-name="Ellipse 1" cx="5.5" cy="5.5" r="5.5" transform="translate(331 98)" fill="rgba(83,206,248,0.46)"/>
    </g>
    <g transform="translate(-207 88)">
      <circle id="Ellipse_1-71" data-name="Ellipse 1" cx="5.5" cy="5.5" r="5.5" transform="translate(331 98)" fill="rgba(83,206,248,0.46)"/>
    </g>
    <g transform="translate(-176 88)">
      <circle id="Ellipse_1-72" data-name="Ellipse 1" cx="5.5" cy="5.5" r="5.5" transform="translate(331 98)" fill="rgba(83,206,248,0.46)"/>
    </g>
    <g transform="translate(-145 88)">
      <circle id="Ellipse_1-73" data-name="Ellipse 1" cx="5.5" cy="5.5" r="5.5" transform="translate(331 98)" fill="rgba(83,206,248,0.46)"/>
    </g>
    <g transform="translate(-114 88)">
      <circle id="Ellipse_1-74" data-name="Ellipse 1" cx="5.5" cy="5.5" r="5.5" transform="translate(331 98)" fill="rgba(83,206,248,0.46)"/>
    </g>
    <g transform="translate(-83 88)">
      <circle id="Ellipse_1-75" data-name="Ellipse 1" cx="5.5" cy="5.5" r="5.5" transform="translate(331 98)" fill="rgba(83,206,248,0.46)"/>
    </g>
    <g transform="translate(-52 88)">
      <circle id="Ellipse_1-76" data-name="Ellipse 1" cx="5.5" cy="5.5" r="5.5" transform="translate(331 98)" fill="rgba(83,206,248,0.46)"/>
    </g>
    <g transform="translate(-21 88)">
      <circle id="Ellipse_1-77" data-name="Ellipse 1" cx="5.5" cy="5.5" r="5.5" transform="translate(331 98)" fill="rgba(83,206,248,0.46)"/>
    </g>
  </g>
</svg>
