<svg xmlns="http://www.w3.org/2000/svg" xmlns:xlink="http://www.w3.org/1999/xlink" width="328" height="233" viewBox="0 0 328 233">
  <defs>
    <clipPath id="clip-path">
      <rect width="328" height="233" fill="none"/>
    </clipPath>
  </defs>
  <g id="msc-bg-cg" clip-path="url(#clip-path)">
    <g transform="translate(-1060 -229)">
      <circle id="Ellipse_3" data-name="Ellipse 3" cx="5.5" cy="5.5" r="5.5" transform="translate(1060 229)" fill="rgba(123,84,166,0.5)"/>
    </g>
    <g transform="translate(-1029 -229)">
      <circle id="Ellipse_3-2" data-name="Ellipse 3" cx="5.5" cy="5.5" r="5.5" transform="translate(1060 229)" fill="rgba(123,84,166,0.5)"/>
    </g>
    <g transform="translate(-998 -229)">
      <circle id="Ellipse_3-3" data-name="Ellipse 3" cx="5.5" cy="5.5" r="5.5" transform="translate(1060 229)" fill="rgba(123,84,166,0.5)"/>
    </g>
    <g transform="translate(-967 -229)">
      <circle id="Ellipse_3-4" data-name="Ellipse 3" cx="5.5" cy="5.5" r="5.5" transform="translate(1060 229)" fill="rgba(123,84,166,0.5)"/>
    </g>
    <g transform="translate(-936 -229)">
      <circle id="Ellipse_3-5" data-name="Ellipse 3" cx="5.5" cy="5.5" r="5.5" transform="translate(1060 229)" fill="rgba(123,84,166,0.5)"/>
    </g>
    <g transform="translate(-905 -229)">
      <circle id="Ellipse_3-6" data-name="Ellipse 3" cx="5.5" cy="5.5" r="5.5" transform="translate(1060 229)" fill="rgba(123,84,166,0.5)"/>
    </g>
    <g transform="translate(-874 -229)">
      <circle id="Ellipse_3-7" data-name="Ellipse 3" cx="5.5" cy="5.5" r="5.5" transform="translate(1060 229)" fill="rgba(123,84,166,0.5)"/>
    </g>
    <g transform="translate(-843 -229)">
      <circle id="Ellipse_3-8" data-name="Ellipse 3" cx="5.5" cy="5.5" r="5.5" transform="translate(1060 229)" fill="rgba(123,84,166,0.5)"/>
    </g>
    <g transform="translate(-812 -229)">
      <circle id="Ellipse_3-9" data-name="Ellipse 3" cx="5.5" cy="5.5" r="5.5" transform="translate(1060 229)" fill="rgba(123,84,166,0.5)"/>
    </g>
    <g transform="translate(-781 -229)">
      <circle id="Ellipse_3-10" data-name="Ellipse 3" cx="5.5" cy="5.5" r="5.5" transform="translate(1060 229)" fill="rgba(123,84,166,0.5)"/>
    </g>
    <g transform="translate(-750 -229)">
      <circle id="Ellipse_3-11" data-name="Ellipse 3" cx="5.5" cy="5.5" r="5.5" transform="translate(1060 229)" fill="rgba(123,84,166,0.5)"/>
    </g>
    <g transform="translate(-1060 -198)">
      <circle id="Ellipse_3-12" data-name="Ellipse 3" cx="5.5" cy="5.5" r="5.5" transform="translate(1060 229)" fill="rgba(123,84,166,0.5)"/>
    </g>
    <g transform="translate(-1029 -198)">
      <circle id="Ellipse_3-13" data-name="Ellipse 3" cx="5.5" cy="5.5" r="5.5" transform="translate(1060 229)" fill="rgba(123,84,166,0.5)"/>
    </g>
    <g transform="translate(-998 -198)">
      <circle id="Ellipse_3-14" data-name="Ellipse 3" cx="5.5" cy="5.5" r="5.5" transform="translate(1060 229)" fill="rgba(123,84,166,0.5)"/>
    </g>
    <g transform="translate(-967 -198)">
      <circle id="Ellipse_3-15" data-name="Ellipse 3" cx="5.5" cy="5.5" r="5.5" transform="translate(1060 229)" fill="rgba(123,84,166,0.5)"/>
    </g>
    <g transform="translate(-936 -198)">
      <circle id="Ellipse_3-16" data-name="Ellipse 3" cx="5.5" cy="5.5" r="5.5" transform="translate(1060 229)" fill="rgba(123,84,166,0.5)"/>
    </g>
    <g transform="translate(-905 -198)">
      <circle id="Ellipse_3-17" data-name="Ellipse 3" cx="5.5" cy="5.5" r="5.5" transform="translate(1060 229)" fill="rgba(123,84,166,0.5)"/>
    </g>
    <g transform="translate(-874 -198)">
      <circle id="Ellipse_3-18" data-name="Ellipse 3" cx="5.5" cy="5.5" r="5.5" transform="translate(1060 229)" fill="rgba(123,84,166,0.5)"/>
    </g>
    <g transform="translate(-843 -198)">
      <circle id="Ellipse_3-19" data-name="Ellipse 3" cx="5.5" cy="5.5" r="5.5" transform="translate(1060 229)" fill="rgba(123,84,166,0.5)"/>
    </g>
    <g transform="translate(-812 -198)">
      <circle id="Ellipse_3-20" data-name="Ellipse 3" cx="5.5" cy="5.5" r="5.5" transform="translate(1060 229)" fill="rgba(123,84,166,0.5)"/>
    </g>
    <g transform="translate(-781 -198)">
      <circle id="Ellipse_3-21" data-name="Ellipse 3" cx="5.5" cy="5.5" r="5.5" transform="translate(1060 229)" fill="rgba(123,84,166,0.5)"/>
    </g>
    <g transform="translate(-750 -198)">
      <circle id="Ellipse_3-22" data-name="Ellipse 3" cx="5.5" cy="5.5" r="5.5" transform="translate(1060 229)" fill="rgba(123,84,166,0.5)"/>
    </g>
    <g transform="translate(-1060 -167)">
      <circle id="Ellipse_3-23" data-name="Ellipse 3" cx="5.5" cy="5.5" r="5.5" transform="translate(1060 229)" fill="rgba(123,84,166,0.5)"/>
    </g>
    <g transform="translate(-1029 -167)">
      <circle id="Ellipse_3-24" data-name="Ellipse 3" cx="5.5" cy="5.5" r="5.5" transform="translate(1060 229)" fill="rgba(123,84,166,0.5)"/>
    </g>
    <g transform="translate(-998 -167)">
      <circle id="Ellipse_3-25" data-name="Ellipse 3" cx="5.5" cy="5.5" r="5.5" transform="translate(1060 229)" fill="rgba(123,84,166,0.5)"/>
    </g>
    <g transform="translate(-967 -167)">
      <circle id="Ellipse_3-26" data-name="Ellipse 3" cx="5.5" cy="5.5" r="5.5" transform="translate(1060 229)" fill="rgba(123,84,166,0.5)"/>
    </g>
    <g transform="translate(-936 -167)">
      <circle id="Ellipse_3-27" data-name="Ellipse 3" cx="5.5" cy="5.5" r="5.5" transform="translate(1060 229)" fill="rgba(123,84,166,0.5)"/>
    </g>
    <g transform="translate(-905 -167)">
      <circle id="Ellipse_3-28" data-name="Ellipse 3" cx="5.5" cy="5.5" r="5.5" transform="translate(1060 229)" fill="rgba(123,84,166,0.5)"/>
    </g>
    <g transform="translate(-874 -167)">
      <circle id="Ellipse_3-29" data-name="Ellipse 3" cx="5.5" cy="5.5" r="5.5" transform="translate(1060 229)" fill="rgba(123,84,166,0.5)"/>
    </g>
    <g transform="translate(-843 -167)">
      <circle id="Ellipse_3-30" data-name="Ellipse 3" cx="5.5" cy="5.5" r="5.5" transform="translate(1060 229)" fill="rgba(123,84,166,0.5)"/>
    </g>
    <g transform="translate(-812 -167)">
      <circle id="Ellipse_3-31" data-name="Ellipse 3" cx="5.5" cy="5.5" r="5.5" transform="translate(1060 229)" fill="rgba(123,84,166,0.5)"/>
    </g>
    <g transform="translate(-781 -167)">
      <circle id="Ellipse_3-32" data-name="Ellipse 3" cx="5.5" cy="5.5" r="5.5" transform="translate(1060 229)" fill="rgba(123,84,166,0.5)"/>
    </g>
    <g transform="translate(-750 -167)">
      <circle id="Ellipse_3-33" data-name="Ellipse 3" cx="5.5" cy="5.5" r="5.5" transform="translate(1060 229)" fill="rgba(123,84,166,0.5)"/>
    </g>
    <g transform="translate(-1060 -136)">
      <circle id="Ellipse_3-34" data-name="Ellipse 3" cx="5.5" cy="5.5" r="5.5" transform="translate(1060 229)" fill="rgba(123,84,166,0.5)"/>
    </g>
    <g transform="translate(-1029 -136)">
      <circle id="Ellipse_3-35" data-name="Ellipse 3" cx="5.5" cy="5.5" r="5.5" transform="translate(1060 229)" fill="rgba(123,84,166,0.5)"/>
    </g>
    <g transform="translate(-998 -136)">
      <circle id="Ellipse_3-36" data-name="Ellipse 3" cx="5.5" cy="5.5" r="5.5" transform="translate(1060 229)" fill="rgba(123,84,166,0.5)"/>
    </g>
    <g transform="translate(-967 -136)">
      <circle id="Ellipse_3-37" data-name="Ellipse 3" cx="5.5" cy="5.5" r="5.5" transform="translate(1060 229)" fill="rgba(123,84,166,0.5)"/>
    </g>
    <g transform="translate(-936 -136)">
      <circle id="Ellipse_3-38" data-name="Ellipse 3" cx="5.5" cy="5.5" r="5.5" transform="translate(1060 229)" fill="rgba(123,84,166,0.5)"/>
    </g>
    <g transform="translate(-905 -136)">
      <circle id="Ellipse_3-39" data-name="Ellipse 3" cx="5.5" cy="5.5" r="5.5" transform="translate(1060 229)" fill="rgba(123,84,166,0.5)"/>
    </g>
    <g transform="translate(-874 -136)">
      <circle id="Ellipse_3-40" data-name="Ellipse 3" cx="5.5" cy="5.5" r="5.5" transform="translate(1060 229)" fill="rgba(123,84,166,0.5)"/>
    </g>
    <g transform="translate(-843 -136)">
      <circle id="Ellipse_3-41" data-name="Ellipse 3" cx="5.5" cy="5.5" r="5.5" transform="translate(1060 229)" fill="rgba(123,84,166,0.5)"/>
    </g>
    <g transform="translate(-812 -136)">
      <circle id="Ellipse_3-42" data-name="Ellipse 3" cx="5.5" cy="5.5" r="5.5" transform="translate(1060 229)" fill="rgba(123,84,166,0.5)"/>
    </g>
    <g transform="translate(-781 -136)">
      <circle id="Ellipse_3-43" data-name="Ellipse 3" cx="5.5" cy="5.5" r="5.5" transform="translate(1060 229)" fill="rgba(123,84,166,0.5)"/>
    </g>
    <g transform="translate(-750 -136)">
      <circle id="Ellipse_3-44" data-name="Ellipse 3" cx="5.5" cy="5.5" r="5.5" transform="translate(1060 229)" fill="rgba(123,84,166,0.5)"/>
    </g>
    <g transform="translate(-1060 -105)">
      <circle id="Ellipse_3-45" data-name="Ellipse 3" cx="5.5" cy="5.5" r="5.5" transform="translate(1060 229)" fill="rgba(123,84,166,0.5)"/>
    </g>
    <g transform="translate(-1029 -105)">
      <circle id="Ellipse_3-46" data-name="Ellipse 3" cx="5.5" cy="5.5" r="5.5" transform="translate(1060 229)" fill="rgba(123,84,166,0.5)"/>
    </g>
    <g transform="translate(-998 -105)">
      <circle id="Ellipse_3-47" data-name="Ellipse 3" cx="5.5" cy="5.5" r="5.5" transform="translate(1060 229)" fill="rgba(123,84,166,0.5)"/>
    </g>
    <g transform="translate(-967 -105)">
      <circle id="Ellipse_3-48" data-name="Ellipse 3" cx="5.5" cy="5.5" r="5.5" transform="translate(1060 229)" fill="rgba(123,84,166,0.5)"/>
    </g>
    <g transform="translate(-936 -105)">
      <circle id="Ellipse_3-49" data-name="Ellipse 3" cx="5.5" cy="5.5" r="5.5" transform="translate(1060 229)" fill="rgba(123,84,166,0.5)"/>
    </g>
    <g transform="translate(-905 -105)">
      <circle id="Ellipse_3-50" data-name="Ellipse 3" cx="5.5" cy="5.5" r="5.5" transform="translate(1060 229)" fill="rgba(123,84,166,0.5)"/>
    </g>
    <g transform="translate(-874 -105)">
      <circle id="Ellipse_3-51" data-name="Ellipse 3" cx="5.5" cy="5.5" r="5.5" transform="translate(1060 229)" fill="rgba(123,84,166,0.5)"/>
    </g>
    <g transform="translate(-843 -105)">
      <circle id="Ellipse_3-52" data-name="Ellipse 3" cx="5.5" cy="5.5" r="5.5" transform="translate(1060 229)" fill="rgba(123,84,166,0.5)"/>
    </g>
    <g transform="translate(-812 -105)">
      <circle id="Ellipse_3-53" data-name="Ellipse 3" cx="5.5" cy="5.5" r="5.5" transform="translate(1060 229)" fill="rgba(123,84,166,0.5)"/>
    </g>
    <g transform="translate(-781 -105)">
      <circle id="Ellipse_3-54" data-name="Ellipse 3" cx="5.5" cy="5.5" r="5.5" transform="translate(1060 229)" fill="rgba(123,84,166,0.5)"/>
    </g>
    <g transform="translate(-750 -105)">
      <circle id="Ellipse_3-55" data-name="Ellipse 3" cx="5.5" cy="5.5" r="5.5" transform="translate(1060 229)" fill="rgba(123,84,166,0.5)"/>
    </g>
    <g transform="translate(-1060 -74)">
      <circle id="Ellipse_3-56" data-name="Ellipse 3" cx="5.5" cy="5.5" r="5.5" transform="translate(1060 229)" fill="rgba(123,84,166,0.5)"/>
    </g>
    <g transform="translate(-1029 -74)">
      <circle id="Ellipse_3-57" data-name="Ellipse 3" cx="5.5" cy="5.5" r="5.5" transform="translate(1060 229)" fill="rgba(123,84,166,0.5)"/>
    </g>
    <g transform="translate(-998 -74)">
      <circle id="Ellipse_3-58" data-name="Ellipse 3" cx="5.5" cy="5.5" r="5.5" transform="translate(1060 229)" fill="rgba(123,84,166,0.5)"/>
    </g>
    <g transform="translate(-967 -74)">
      <circle id="Ellipse_3-59" data-name="Ellipse 3" cx="5.5" cy="5.5" r="5.5" transform="translate(1060 229)" fill="rgba(123,84,166,0.5)"/>
    </g>
    <g transform="translate(-936 -74)">
      <circle id="Ellipse_3-60" data-name="Ellipse 3" cx="5.5" cy="5.5" r="5.5" transform="translate(1060 229)" fill="rgba(123,84,166,0.5)"/>
    </g>
    <g transform="translate(-905 -74)">
      <circle id="Ellipse_3-61" data-name="Ellipse 3" cx="5.5" cy="5.5" r="5.5" transform="translate(1060 229)" fill="rgba(123,84,166,0.5)"/>
    </g>
    <g transform="translate(-874 -74)">
      <circle id="Ellipse_3-62" data-name="Ellipse 3" cx="5.5" cy="5.5" r="5.5" transform="translate(1060 229)" fill="rgba(123,84,166,0.5)"/>
    </g>
    <g transform="translate(-843 -74)">
      <circle id="Ellipse_3-63" data-name="Ellipse 3" cx="5.5" cy="5.5" r="5.5" transform="translate(1060 229)" fill="rgba(123,84,166,0.5)"/>
    </g>
    <g transform="translate(-812 -74)">
      <circle id="Ellipse_3-64" data-name="Ellipse 3" cx="5.5" cy="5.5" r="5.5" transform="translate(1060 229)" fill="rgba(123,84,166,0.5)"/>
    </g>
    <g transform="translate(-781 -74)">
      <circle id="Ellipse_3-65" data-name="Ellipse 3" cx="5.5" cy="5.5" r="5.5" transform="translate(1060 229)" fill="rgba(123,84,166,0.5)"/>
    </g>
    <g transform="translate(-750 -74)">
      <circle id="Ellipse_3-66" data-name="Ellipse 3" cx="5.5" cy="5.5" r="5.5" transform="translate(1060 229)" fill="rgba(123,84,166,0.5)"/>
    </g>
    <g transform="translate(-1060 -43)">
      <circle id="Ellipse_3-67" data-name="Ellipse 3" cx="5.5" cy="5.5" r="5.5" transform="translate(1060 229)" fill="rgba(123,84,166,0.5)"/>
    </g>
    <g transform="translate(-1029 -43)">
      <circle id="Ellipse_3-68" data-name="Ellipse 3" cx="5.5" cy="5.5" r="5.5" transform="translate(1060 229)" fill="rgba(123,84,166,0.5)"/>
    </g>
    <g transform="translate(-998 -43)">
      <circle id="Ellipse_3-69" data-name="Ellipse 3" cx="5.5" cy="5.5" r="5.5" transform="translate(1060 229)" fill="rgba(123,84,166,0.5)"/>
    </g>
    <g transform="translate(-967 -43)">
      <circle id="Ellipse_3-70" data-name="Ellipse 3" cx="5.5" cy="5.5" r="5.5" transform="translate(1060 229)" fill="rgba(123,84,166,0.5)"/>
    </g>
    <g transform="translate(-936 -43)">
      <circle id="Ellipse_3-71" data-name="Ellipse 3" cx="5.5" cy="5.5" r="5.5" transform="translate(1060 229)" fill="rgba(123,84,166,0.5)"/>
    </g>
    <g transform="translate(-905 -43)">
      <circle id="Ellipse_3-72" data-name="Ellipse 3" cx="5.5" cy="5.5" r="5.5" transform="translate(1060 229)" fill="rgba(123,84,166,0.5)"/>
    </g>
    <g transform="translate(-874 -43)">
      <circle id="Ellipse_3-73" data-name="Ellipse 3" cx="5.5" cy="5.5" r="5.5" transform="translate(1060 229)" fill="rgba(123,84,166,0.5)"/>
    </g>
    <g transform="translate(-843 -43)">
      <circle id="Ellipse_3-74" data-name="Ellipse 3" cx="5.5" cy="5.5" r="5.5" transform="translate(1060 229)" fill="rgba(123,84,166,0.5)"/>
    </g>
    <g transform="translate(-812 -43)">
      <circle id="Ellipse_3-75" data-name="Ellipse 3" cx="5.5" cy="5.5" r="5.5" transform="translate(1060 229)" fill="rgba(123,84,166,0.5)"/>
    </g>
    <g transform="translate(-781 -43)">
      <circle id="Ellipse_3-76" data-name="Ellipse 3" cx="5.5" cy="5.5" r="5.5" transform="translate(1060 229)" fill="rgba(123,84,166,0.5)"/>
    </g>
    <g transform="translate(-750 -43)">
      <circle id="Ellipse_3-77" data-name="Ellipse 3" cx="5.5" cy="5.5" r="5.5" transform="translate(1060 229)" fill="rgba(123,84,166,0.5)"/>
    </g>
    <g transform="translate(-1060 -12)">
      <circle id="Ellipse_3-78" data-name="Ellipse 3" cx="5.5" cy="5.5" r="5.5" transform="translate(1060 229)" fill="rgba(123,84,166,0.5)"/>
    </g>
    <g transform="translate(-1029 -12)">
      <circle id="Ellipse_3-79" data-name="Ellipse 3" cx="5.5" cy="5.5" r="5.5" transform="translate(1060 229)" fill="rgba(123,84,166,0.5)"/>
    </g>
    <g transform="translate(-998 -12)">
      <circle id="Ellipse_3-80" data-name="Ellipse 3" cx="5.5" cy="5.5" r="5.5" transform="translate(1060 229)" fill="rgba(123,84,166,0.5)"/>
    </g>
    <g transform="translate(-967 -12)">
      <circle id="Ellipse_3-81" data-name="Ellipse 3" cx="5.5" cy="5.5" r="5.5" transform="translate(1060 229)" fill="rgba(123,84,166,0.5)"/>
    </g>
    <g transform="translate(-936 -12)">
      <circle id="Ellipse_3-82" data-name="Ellipse 3" cx="5.5" cy="5.5" r="5.5" transform="translate(1060 229)" fill="rgba(123,84,166,0.5)"/>
    </g>
    <g transform="translate(-905 -12)">
      <circle id="Ellipse_3-83" data-name="Ellipse 3" cx="5.5" cy="5.5" r="5.5" transform="translate(1060 229)" fill="rgba(123,84,166,0.5)"/>
    </g>
    <g transform="translate(-874 -12)">
      <circle id="Ellipse_3-84" data-name="Ellipse 3" cx="5.5" cy="5.5" r="5.5" transform="translate(1060 229)" fill="rgba(123,84,166,0.5)"/>
    </g>
    <g transform="translate(-843 -12)">
      <circle id="Ellipse_3-85" data-name="Ellipse 3" cx="5.5" cy="5.5" r="5.5" transform="translate(1060 229)" fill="rgba(123,84,166,0.5)"/>
    </g>
    <g transform="translate(-812 -12)">
      <circle id="Ellipse_3-86" data-name="Ellipse 3" cx="5.5" cy="5.5" r="5.5" transform="translate(1060 229)" fill="rgba(123,84,166,0.5)"/>
    </g>
    <g transform="translate(-781 -12)">
      <circle id="Ellipse_3-87" data-name="Ellipse 3" cx="5.5" cy="5.5" r="5.5" transform="translate(1060 229)" fill="rgba(123,84,166,0.5)"/>
    </g>
    <g transform="translate(-750 -12)">
      <circle id="Ellipse_3-88" data-name="Ellipse 3" cx="5.5" cy="5.5" r="5.5" transform="translate(1060 229)" fill="rgba(123,84,166,0.5)"/>
    </g>
  </g>
</svg>
