<svg xmlns="http://www.w3.org/2000/svg" xmlns:xlink="http://www.w3.org/1999/xlink" width="1381" height="768" viewBox="0 0 1381 768">
  <defs>
    <clipPath id="clip-path">
      <rect width="340" height="232" fill="none"/>
    </clipPath>
    <clipPath id="clip-path-2">
      <rect width="327" height="202" fill="none"/>
    </clipPath>
  </defs>
  <g id="s2-content-bg" transform="translate(15)">
    <g id="Repeat_Grid_2" data-name="Repeat Grid 2" transform="translate(643 508)" clip-path="url(#clip-path)">
      <g transform="translate(-733 -476)">
        <circle id="Ellipse_2" data-name="Ellipse 2" cx="6" cy="6" r="6" transform="translate(733 476)" fill="rgba(83,206,248,0.35)"/>
      </g>
      <g transform="translate(-701 -476)">
        <circle id="Ellipse_2-2" data-name="Ellipse 2" cx="6" cy="6" r="6" transform="translate(733 476)" fill="rgba(83,206,248,0.35)"/>
      </g>
      <g transform="translate(-669 -476)">
        <circle id="Ellipse_2-3" data-name="Ellipse 2" cx="6" cy="6" r="6" transform="translate(733 476)" fill="rgba(83,206,248,0.35)"/>
      </g>
      <g transform="translate(-637 -476)">
        <circle id="Ellipse_2-4" data-name="Ellipse 2" cx="6" cy="6" r="6" transform="translate(733 476)" fill="rgba(83,206,248,0.35)"/>
      </g>
      <g transform="translate(-605 -476)">
        <circle id="Ellipse_2-5" data-name="Ellipse 2" cx="6" cy="6" r="6" transform="translate(733 476)" fill="rgba(83,206,248,0.35)"/>
      </g>
      <g transform="translate(-573 -476)">
        <circle id="Ellipse_2-6" data-name="Ellipse 2" cx="6" cy="6" r="6" transform="translate(733 476)" fill="rgba(83,206,248,0.35)"/>
      </g>
      <g transform="translate(-541 -476)">
        <circle id="Ellipse_2-7" data-name="Ellipse 2" cx="6" cy="6" r="6" transform="translate(733 476)" fill="rgba(83,206,248,0.35)"/>
      </g>
      <g transform="translate(-509 -476)">
        <circle id="Ellipse_2-8" data-name="Ellipse 2" cx="6" cy="6" r="6" transform="translate(733 476)" fill="rgba(83,206,248,0.35)"/>
      </g>
      <g transform="translate(-477 -476)">
        <circle id="Ellipse_2-9" data-name="Ellipse 2" cx="6" cy="6" r="6" transform="translate(733 476)" fill="rgba(83,206,248,0.35)"/>
      </g>
      <g transform="translate(-445 -476)">
        <circle id="Ellipse_2-10" data-name="Ellipse 2" cx="6" cy="6" r="6" transform="translate(733 476)" fill="rgba(83,206,248,0.35)"/>
      </g>
      <g transform="translate(-413 -476)">
        <circle id="Ellipse_2-11" data-name="Ellipse 2" cx="6" cy="6" r="6" transform="translate(733 476)" fill="rgba(83,206,248,0.35)"/>
      </g>
      <g transform="translate(-733 -444)">
        <circle id="Ellipse_2-12" data-name="Ellipse 2" cx="6" cy="6" r="6" transform="translate(733 476)" fill="rgba(83,206,248,0.35)"/>
      </g>
      <g transform="translate(-701 -444)">
        <circle id="Ellipse_2-13" data-name="Ellipse 2" cx="6" cy="6" r="6" transform="translate(733 476)" fill="rgba(83,206,248,0.35)"/>
      </g>
      <g transform="translate(-669 -444)">
        <circle id="Ellipse_2-14" data-name="Ellipse 2" cx="6" cy="6" r="6" transform="translate(733 476)" fill="rgba(83,206,248,0.35)"/>
      </g>
      <g transform="translate(-637 -444)">
        <circle id="Ellipse_2-15" data-name="Ellipse 2" cx="6" cy="6" r="6" transform="translate(733 476)" fill="rgba(83,206,248,0.35)"/>
      </g>
      <g transform="translate(-605 -444)">
        <circle id="Ellipse_2-16" data-name="Ellipse 2" cx="6" cy="6" r="6" transform="translate(733 476)" fill="rgba(83,206,248,0.35)"/>
      </g>
      <g transform="translate(-573 -444)">
        <circle id="Ellipse_2-17" data-name="Ellipse 2" cx="6" cy="6" r="6" transform="translate(733 476)" fill="rgba(83,206,248,0.35)"/>
      </g>
      <g transform="translate(-541 -444)">
        <circle id="Ellipse_2-18" data-name="Ellipse 2" cx="6" cy="6" r="6" transform="translate(733 476)" fill="rgba(83,206,248,0.35)"/>
      </g>
      <g transform="translate(-509 -444)">
        <circle id="Ellipse_2-19" data-name="Ellipse 2" cx="6" cy="6" r="6" transform="translate(733 476)" fill="rgba(83,206,248,0.35)"/>
      </g>
      <g transform="translate(-477 -444)">
        <circle id="Ellipse_2-20" data-name="Ellipse 2" cx="6" cy="6" r="6" transform="translate(733 476)" fill="rgba(83,206,248,0.35)"/>
      </g>
      <g transform="translate(-445 -444)">
        <circle id="Ellipse_2-21" data-name="Ellipse 2" cx="6" cy="6" r="6" transform="translate(733 476)" fill="rgba(83,206,248,0.35)"/>
      </g>
      <g transform="translate(-413 -444)">
        <circle id="Ellipse_2-22" data-name="Ellipse 2" cx="6" cy="6" r="6" transform="translate(733 476)" fill="rgba(83,206,248,0.35)"/>
      </g>
      <g transform="translate(-733 -412)">
        <circle id="Ellipse_2-23" data-name="Ellipse 2" cx="6" cy="6" r="6" transform="translate(733 476)" fill="rgba(83,206,248,0.35)"/>
      </g>
      <g transform="translate(-701 -412)">
        <circle id="Ellipse_2-24" data-name="Ellipse 2" cx="6" cy="6" r="6" transform="translate(733 476)" fill="rgba(83,206,248,0.35)"/>
      </g>
      <g transform="translate(-669 -412)">
        <circle id="Ellipse_2-25" data-name="Ellipse 2" cx="6" cy="6" r="6" transform="translate(733 476)" fill="rgba(83,206,248,0.35)"/>
      </g>
      <g transform="translate(-637 -412)">
        <circle id="Ellipse_2-26" data-name="Ellipse 2" cx="6" cy="6" r="6" transform="translate(733 476)" fill="rgba(83,206,248,0.35)"/>
      </g>
      <g transform="translate(-605 -412)">
        <circle id="Ellipse_2-27" data-name="Ellipse 2" cx="6" cy="6" r="6" transform="translate(733 476)" fill="rgba(83,206,248,0.35)"/>
      </g>
      <g transform="translate(-573 -412)">
        <circle id="Ellipse_2-28" data-name="Ellipse 2" cx="6" cy="6" r="6" transform="translate(733 476)" fill="rgba(83,206,248,0.35)"/>
      </g>
      <g transform="translate(-541 -412)">
        <circle id="Ellipse_2-29" data-name="Ellipse 2" cx="6" cy="6" r="6" transform="translate(733 476)" fill="rgba(83,206,248,0.35)"/>
      </g>
      <g transform="translate(-509 -412)">
        <circle id="Ellipse_2-30" data-name="Ellipse 2" cx="6" cy="6" r="6" transform="translate(733 476)" fill="rgba(83,206,248,0.35)"/>
      </g>
      <g transform="translate(-477 -412)">
        <circle id="Ellipse_2-31" data-name="Ellipse 2" cx="6" cy="6" r="6" transform="translate(733 476)" fill="rgba(83,206,248,0.35)"/>
      </g>
      <g transform="translate(-445 -412)">
        <circle id="Ellipse_2-32" data-name="Ellipse 2" cx="6" cy="6" r="6" transform="translate(733 476)" fill="rgba(83,206,248,0.35)"/>
      </g>
      <g transform="translate(-413 -412)">
        <circle id="Ellipse_2-33" data-name="Ellipse 2" cx="6" cy="6" r="6" transform="translate(733 476)" fill="rgba(83,206,248,0.35)"/>
      </g>
      <g transform="translate(-733 -380)">
        <circle id="Ellipse_2-34" data-name="Ellipse 2" cx="6" cy="6" r="6" transform="translate(733 476)" fill="rgba(83,206,248,0.35)"/>
      </g>
      <g transform="translate(-701 -380)">
        <circle id="Ellipse_2-35" data-name="Ellipse 2" cx="6" cy="6" r="6" transform="translate(733 476)" fill="rgba(83,206,248,0.35)"/>
      </g>
      <g transform="translate(-669 -380)">
        <circle id="Ellipse_2-36" data-name="Ellipse 2" cx="6" cy="6" r="6" transform="translate(733 476)" fill="rgba(83,206,248,0.35)"/>
      </g>
      <g transform="translate(-637 -380)">
        <circle id="Ellipse_2-37" data-name="Ellipse 2" cx="6" cy="6" r="6" transform="translate(733 476)" fill="rgba(83,206,248,0.35)"/>
      </g>
      <g transform="translate(-605 -380)">
        <circle id="Ellipse_2-38" data-name="Ellipse 2" cx="6" cy="6" r="6" transform="translate(733 476)" fill="rgba(83,206,248,0.35)"/>
      </g>
      <g transform="translate(-573 -380)">
        <circle id="Ellipse_2-39" data-name="Ellipse 2" cx="6" cy="6" r="6" transform="translate(733 476)" fill="rgba(83,206,248,0.35)"/>
      </g>
      <g transform="translate(-541 -380)">
        <circle id="Ellipse_2-40" data-name="Ellipse 2" cx="6" cy="6" r="6" transform="translate(733 476)" fill="rgba(83,206,248,0.35)"/>
      </g>
      <g transform="translate(-509 -380)">
        <circle id="Ellipse_2-41" data-name="Ellipse 2" cx="6" cy="6" r="6" transform="translate(733 476)" fill="rgba(83,206,248,0.35)"/>
      </g>
      <g transform="translate(-477 -380)">
        <circle id="Ellipse_2-42" data-name="Ellipse 2" cx="6" cy="6" r="6" transform="translate(733 476)" fill="rgba(83,206,248,0.35)"/>
      </g>
      <g transform="translate(-445 -380)">
        <circle id="Ellipse_2-43" data-name="Ellipse 2" cx="6" cy="6" r="6" transform="translate(733 476)" fill="rgba(83,206,248,0.35)"/>
      </g>
      <g transform="translate(-413 -380)">
        <circle id="Ellipse_2-44" data-name="Ellipse 2" cx="6" cy="6" r="6" transform="translate(733 476)" fill="rgba(83,206,248,0.35)"/>
      </g>
      <g transform="translate(-733 -348)">
        <circle id="Ellipse_2-45" data-name="Ellipse 2" cx="6" cy="6" r="6" transform="translate(733 476)" fill="rgba(83,206,248,0.35)"/>
      </g>
      <g transform="translate(-701 -348)">
        <circle id="Ellipse_2-46" data-name="Ellipse 2" cx="6" cy="6" r="6" transform="translate(733 476)" fill="rgba(83,206,248,0.35)"/>
      </g>
      <g transform="translate(-669 -348)">
        <circle id="Ellipse_2-47" data-name="Ellipse 2" cx="6" cy="6" r="6" transform="translate(733 476)" fill="rgba(83,206,248,0.35)"/>
      </g>
      <g transform="translate(-637 -348)">
        <circle id="Ellipse_2-48" data-name="Ellipse 2" cx="6" cy="6" r="6" transform="translate(733 476)" fill="rgba(83,206,248,0.35)"/>
      </g>
      <g transform="translate(-605 -348)">
        <circle id="Ellipse_2-49" data-name="Ellipse 2" cx="6" cy="6" r="6" transform="translate(733 476)" fill="rgba(83,206,248,0.35)"/>
      </g>
      <g transform="translate(-573 -348)">
        <circle id="Ellipse_2-50" data-name="Ellipse 2" cx="6" cy="6" r="6" transform="translate(733 476)" fill="rgba(83,206,248,0.35)"/>
      </g>
      <g transform="translate(-541 -348)">
        <circle id="Ellipse_2-51" data-name="Ellipse 2" cx="6" cy="6" r="6" transform="translate(733 476)" fill="rgba(83,206,248,0.35)"/>
      </g>
      <g transform="translate(-509 -348)">
        <circle id="Ellipse_2-52" data-name="Ellipse 2" cx="6" cy="6" r="6" transform="translate(733 476)" fill="rgba(83,206,248,0.35)"/>
      </g>
      <g transform="translate(-477 -348)">
        <circle id="Ellipse_2-53" data-name="Ellipse 2" cx="6" cy="6" r="6" transform="translate(733 476)" fill="rgba(83,206,248,0.35)"/>
      </g>
      <g transform="translate(-445 -348)">
        <circle id="Ellipse_2-54" data-name="Ellipse 2" cx="6" cy="6" r="6" transform="translate(733 476)" fill="rgba(83,206,248,0.35)"/>
      </g>
      <g transform="translate(-413 -348)">
        <circle id="Ellipse_2-55" data-name="Ellipse 2" cx="6" cy="6" r="6" transform="translate(733 476)" fill="rgba(83,206,248,0.35)"/>
      </g>
      <g transform="translate(-733 -316)">
        <circle id="Ellipse_2-56" data-name="Ellipse 2" cx="6" cy="6" r="6" transform="translate(733 476)" fill="rgba(83,206,248,0.35)"/>
      </g>
      <g transform="translate(-701 -316)">
        <circle id="Ellipse_2-57" data-name="Ellipse 2" cx="6" cy="6" r="6" transform="translate(733 476)" fill="rgba(83,206,248,0.35)"/>
      </g>
      <g transform="translate(-669 -316)">
        <circle id="Ellipse_2-58" data-name="Ellipse 2" cx="6" cy="6" r="6" transform="translate(733 476)" fill="rgba(83,206,248,0.35)"/>
      </g>
      <g transform="translate(-637 -316)">
        <circle id="Ellipse_2-59" data-name="Ellipse 2" cx="6" cy="6" r="6" transform="translate(733 476)" fill="rgba(83,206,248,0.35)"/>
      </g>
      <g transform="translate(-605 -316)">
        <circle id="Ellipse_2-60" data-name="Ellipse 2" cx="6" cy="6" r="6" transform="translate(733 476)" fill="rgba(83,206,248,0.35)"/>
      </g>
      <g transform="translate(-573 -316)">
        <circle id="Ellipse_2-61" data-name="Ellipse 2" cx="6" cy="6" r="6" transform="translate(733 476)" fill="rgba(83,206,248,0.35)"/>
      </g>
      <g transform="translate(-541 -316)">
        <circle id="Ellipse_2-62" data-name="Ellipse 2" cx="6" cy="6" r="6" transform="translate(733 476)" fill="rgba(83,206,248,0.35)"/>
      </g>
      <g transform="translate(-509 -316)">
        <circle id="Ellipse_2-63" data-name="Ellipse 2" cx="6" cy="6" r="6" transform="translate(733 476)" fill="rgba(83,206,248,0.35)"/>
      </g>
      <g transform="translate(-477 -316)">
        <circle id="Ellipse_2-64" data-name="Ellipse 2" cx="6" cy="6" r="6" transform="translate(733 476)" fill="rgba(83,206,248,0.35)"/>
      </g>
      <g transform="translate(-445 -316)">
        <circle id="Ellipse_2-65" data-name="Ellipse 2" cx="6" cy="6" r="6" transform="translate(733 476)" fill="rgba(83,206,248,0.35)"/>
      </g>
      <g transform="translate(-413 -316)">
        <circle id="Ellipse_2-66" data-name="Ellipse 2" cx="6" cy="6" r="6" transform="translate(733 476)" fill="rgba(83,206,248,0.35)"/>
      </g>
      <g transform="translate(-733 -284)">
        <circle id="Ellipse_2-67" data-name="Ellipse 2" cx="6" cy="6" r="6" transform="translate(733 476)" fill="rgba(83,206,248,0.35)"/>
      </g>
      <g transform="translate(-701 -284)">
        <circle id="Ellipse_2-68" data-name="Ellipse 2" cx="6" cy="6" r="6" transform="translate(733 476)" fill="rgba(83,206,248,0.35)"/>
      </g>
      <g transform="translate(-669 -284)">
        <circle id="Ellipse_2-69" data-name="Ellipse 2" cx="6" cy="6" r="6" transform="translate(733 476)" fill="rgba(83,206,248,0.35)"/>
      </g>
      <g transform="translate(-637 -284)">
        <circle id="Ellipse_2-70" data-name="Ellipse 2" cx="6" cy="6" r="6" transform="translate(733 476)" fill="rgba(83,206,248,0.35)"/>
      </g>
      <g transform="translate(-605 -284)">
        <circle id="Ellipse_2-71" data-name="Ellipse 2" cx="6" cy="6" r="6" transform="translate(733 476)" fill="rgba(83,206,248,0.35)"/>
      </g>
      <g transform="translate(-573 -284)">
        <circle id="Ellipse_2-72" data-name="Ellipse 2" cx="6" cy="6" r="6" transform="translate(733 476)" fill="rgba(83,206,248,0.35)"/>
      </g>
      <g transform="translate(-541 -284)">
        <circle id="Ellipse_2-73" data-name="Ellipse 2" cx="6" cy="6" r="6" transform="translate(733 476)" fill="rgba(83,206,248,0.35)"/>
      </g>
      <g transform="translate(-509 -284)">
        <circle id="Ellipse_2-74" data-name="Ellipse 2" cx="6" cy="6" r="6" transform="translate(733 476)" fill="rgba(83,206,248,0.35)"/>
      </g>
      <g transform="translate(-477 -284)">
        <circle id="Ellipse_2-75" data-name="Ellipse 2" cx="6" cy="6" r="6" transform="translate(733 476)" fill="rgba(83,206,248,0.35)"/>
      </g>
      <g transform="translate(-445 -284)">
        <circle id="Ellipse_2-76" data-name="Ellipse 2" cx="6" cy="6" r="6" transform="translate(733 476)" fill="rgba(83,206,248,0.35)"/>
      </g>
      <g transform="translate(-413 -284)">
        <circle id="Ellipse_2-77" data-name="Ellipse 2" cx="6" cy="6" r="6" transform="translate(733 476)" fill="rgba(83,206,248,0.35)"/>
      </g>
      <g transform="translate(-733 -252)">
        <circle id="Ellipse_2-78" data-name="Ellipse 2" cx="6" cy="6" r="6" transform="translate(733 476)" fill="rgba(83,206,248,0.35)"/>
      </g>
      <g transform="translate(-701 -252)">
        <circle id="Ellipse_2-79" data-name="Ellipse 2" cx="6" cy="6" r="6" transform="translate(733 476)" fill="rgba(83,206,248,0.35)"/>
      </g>
      <g transform="translate(-669 -252)">
        <circle id="Ellipse_2-80" data-name="Ellipse 2" cx="6" cy="6" r="6" transform="translate(733 476)" fill="rgba(83,206,248,0.35)"/>
      </g>
      <g transform="translate(-637 -252)">
        <circle id="Ellipse_2-81" data-name="Ellipse 2" cx="6" cy="6" r="6" transform="translate(733 476)" fill="rgba(83,206,248,0.35)"/>
      </g>
      <g transform="translate(-605 -252)">
        <circle id="Ellipse_2-82" data-name="Ellipse 2" cx="6" cy="6" r="6" transform="translate(733 476)" fill="rgba(83,206,248,0.35)"/>
      </g>
      <g transform="translate(-573 -252)">
        <circle id="Ellipse_2-83" data-name="Ellipse 2" cx="6" cy="6" r="6" transform="translate(733 476)" fill="rgba(83,206,248,0.35)"/>
      </g>
      <g transform="translate(-541 -252)">
        <circle id="Ellipse_2-84" data-name="Ellipse 2" cx="6" cy="6" r="6" transform="translate(733 476)" fill="rgba(83,206,248,0.35)"/>
      </g>
      <g transform="translate(-509 -252)">
        <circle id="Ellipse_2-85" data-name="Ellipse 2" cx="6" cy="6" r="6" transform="translate(733 476)" fill="rgba(83,206,248,0.35)"/>
      </g>
      <g transform="translate(-477 -252)">
        <circle id="Ellipse_2-86" data-name="Ellipse 2" cx="6" cy="6" r="6" transform="translate(733 476)" fill="rgba(83,206,248,0.35)"/>
      </g>
      <g transform="translate(-445 -252)">
        <circle id="Ellipse_2-87" data-name="Ellipse 2" cx="6" cy="6" r="6" transform="translate(733 476)" fill="rgba(83,206,248,0.35)"/>
      </g>
      <g transform="translate(-413 -252)">
        <circle id="Ellipse_2-88" data-name="Ellipse 2" cx="6" cy="6" r="6" transform="translate(733 476)" fill="rgba(83,206,248,0.35)"/>
      </g>
    </g>
    <rect id="Rectangle_12" data-name="Rectangle 12" width="136" height="490" transform="translate(565 77)" fill="#53cef8"/>
    <g id="Repeat_Grid_1" data-name="Repeat Grid 1" transform="translate(109 73)" clip-path="url(#clip-path-2)">
      <g transform="translate(-331 -98)">
        <circle id="Ellipse_1" data-name="Ellipse 1" cx="5.5" cy="5.5" r="5.5" transform="translate(331 98)" fill="rgba(83,206,248,0.46)"/>
      </g>
      <g transform="translate(-300 -98)">
        <circle id="Ellipse_1-2" data-name="Ellipse 1" cx="5.5" cy="5.5" r="5.5" transform="translate(331 98)" fill="rgba(83,206,248,0.46)"/>
      </g>
      <g transform="translate(-269 -98)">
        <circle id="Ellipse_1-3" data-name="Ellipse 1" cx="5.5" cy="5.5" r="5.5" transform="translate(331 98)" fill="rgba(83,206,248,0.46)"/>
      </g>
      <g transform="translate(-238 -98)">
        <circle id="Ellipse_1-4" data-name="Ellipse 1" cx="5.5" cy="5.5" r="5.5" transform="translate(331 98)" fill="rgba(83,206,248,0.46)"/>
      </g>
      <g transform="translate(-207 -98)">
        <circle id="Ellipse_1-5" data-name="Ellipse 1" cx="5.5" cy="5.5" r="5.5" transform="translate(331 98)" fill="rgba(83,206,248,0.46)"/>
      </g>
      <g transform="translate(-176 -98)">
        <circle id="Ellipse_1-6" data-name="Ellipse 1" cx="5.5" cy="5.5" r="5.5" transform="translate(331 98)" fill="rgba(83,206,248,0.46)"/>
      </g>
      <g transform="translate(-145 -98)">
        <circle id="Ellipse_1-7" data-name="Ellipse 1" cx="5.5" cy="5.5" r="5.5" transform="translate(331 98)" fill="rgba(83,206,248,0.46)"/>
      </g>
      <g transform="translate(-114 -98)">
        <circle id="Ellipse_1-8" data-name="Ellipse 1" cx="5.5" cy="5.5" r="5.5" transform="translate(331 98)" fill="rgba(83,206,248,0.46)"/>
      </g>
      <g transform="translate(-83 -98)">
        <circle id="Ellipse_1-9" data-name="Ellipse 1" cx="5.5" cy="5.5" r="5.5" transform="translate(331 98)" fill="rgba(83,206,248,0.46)"/>
      </g>
      <g transform="translate(-52 -98)">
        <circle id="Ellipse_1-10" data-name="Ellipse 1" cx="5.5" cy="5.5" r="5.5" transform="translate(331 98)" fill="rgba(83,206,248,0.46)"/>
      </g>
      <g transform="translate(-21 -98)">
        <circle id="Ellipse_1-11" data-name="Ellipse 1" cx="5.5" cy="5.5" r="5.5" transform="translate(331 98)" fill="rgba(83,206,248,0.46)"/>
      </g>
      <g transform="translate(-331 -67)">
        <circle id="Ellipse_1-12" data-name="Ellipse 1" cx="5.5" cy="5.5" r="5.5" transform="translate(331 98)" fill="rgba(83,206,248,0.46)"/>
      </g>
      <g transform="translate(-300 -67)">
        <circle id="Ellipse_1-13" data-name="Ellipse 1" cx="5.5" cy="5.5" r="5.5" transform="translate(331 98)" fill="rgba(83,206,248,0.46)"/>
      </g>
      <g transform="translate(-269 -67)">
        <circle id="Ellipse_1-14" data-name="Ellipse 1" cx="5.5" cy="5.5" r="5.5" transform="translate(331 98)" fill="rgba(83,206,248,0.46)"/>
      </g>
      <g transform="translate(-238 -67)">
        <circle id="Ellipse_1-15" data-name="Ellipse 1" cx="5.5" cy="5.5" r="5.5" transform="translate(331 98)" fill="rgba(83,206,248,0.46)"/>
      </g>
      <g transform="translate(-207 -67)">
        <circle id="Ellipse_1-16" data-name="Ellipse 1" cx="5.5" cy="5.5" r="5.5" transform="translate(331 98)" fill="rgba(83,206,248,0.46)"/>
      </g>
      <g transform="translate(-176 -67)">
        <circle id="Ellipse_1-17" data-name="Ellipse 1" cx="5.5" cy="5.5" r="5.5" transform="translate(331 98)" fill="rgba(83,206,248,0.46)"/>
      </g>
      <g transform="translate(-145 -67)">
        <circle id="Ellipse_1-18" data-name="Ellipse 1" cx="5.5" cy="5.5" r="5.5" transform="translate(331 98)" fill="rgba(83,206,248,0.46)"/>
      </g>
      <g transform="translate(-114 -67)">
        <circle id="Ellipse_1-19" data-name="Ellipse 1" cx="5.5" cy="5.5" r="5.5" transform="translate(331 98)" fill="rgba(83,206,248,0.46)"/>
      </g>
      <g transform="translate(-83 -67)">
        <circle id="Ellipse_1-20" data-name="Ellipse 1" cx="5.5" cy="5.5" r="5.5" transform="translate(331 98)" fill="rgba(83,206,248,0.46)"/>
      </g>
      <g transform="translate(-52 -67)">
        <circle id="Ellipse_1-21" data-name="Ellipse 1" cx="5.5" cy="5.5" r="5.5" transform="translate(331 98)" fill="rgba(83,206,248,0.46)"/>
      </g>
      <g transform="translate(-21 -67)">
        <circle id="Ellipse_1-22" data-name="Ellipse 1" cx="5.5" cy="5.5" r="5.5" transform="translate(331 98)" fill="rgba(83,206,248,0.46)"/>
      </g>
      <g transform="translate(-331 -36)">
        <circle id="Ellipse_1-23" data-name="Ellipse 1" cx="5.5" cy="5.5" r="5.5" transform="translate(331 98)" fill="rgba(83,206,248,0.46)"/>
      </g>
      <g transform="translate(-300 -36)">
        <circle id="Ellipse_1-24" data-name="Ellipse 1" cx="5.5" cy="5.5" r="5.5" transform="translate(331 98)" fill="rgba(83,206,248,0.46)"/>
      </g>
      <g transform="translate(-269 -36)">
        <circle id="Ellipse_1-25" data-name="Ellipse 1" cx="5.5" cy="5.5" r="5.5" transform="translate(331 98)" fill="rgba(83,206,248,0.46)"/>
      </g>
      <g transform="translate(-238 -36)">
        <circle id="Ellipse_1-26" data-name="Ellipse 1" cx="5.5" cy="5.5" r="5.5" transform="translate(331 98)" fill="rgba(83,206,248,0.46)"/>
      </g>
      <g transform="translate(-207 -36)">
        <circle id="Ellipse_1-27" data-name="Ellipse 1" cx="5.5" cy="5.5" r="5.5" transform="translate(331 98)" fill="rgba(83,206,248,0.46)"/>
      </g>
      <g transform="translate(-176 -36)">
        <circle id="Ellipse_1-28" data-name="Ellipse 1" cx="5.5" cy="5.5" r="5.5" transform="translate(331 98)" fill="rgba(83,206,248,0.46)"/>
      </g>
      <g transform="translate(-145 -36)">
        <circle id="Ellipse_1-29" data-name="Ellipse 1" cx="5.5" cy="5.5" r="5.5" transform="translate(331 98)" fill="rgba(83,206,248,0.46)"/>
      </g>
      <g transform="translate(-114 -36)">
        <circle id="Ellipse_1-30" data-name="Ellipse 1" cx="5.5" cy="5.5" r="5.5" transform="translate(331 98)" fill="rgba(83,206,248,0.46)"/>
      </g>
      <g transform="translate(-83 -36)">
        <circle id="Ellipse_1-31" data-name="Ellipse 1" cx="5.5" cy="5.5" r="5.5" transform="translate(331 98)" fill="rgba(83,206,248,0.46)"/>
      </g>
      <g transform="translate(-52 -36)">
        <circle id="Ellipse_1-32" data-name="Ellipse 1" cx="5.5" cy="5.5" r="5.5" transform="translate(331 98)" fill="rgba(83,206,248,0.46)"/>
      </g>
      <g transform="translate(-21 -36)">
        <circle id="Ellipse_1-33" data-name="Ellipse 1" cx="5.5" cy="5.5" r="5.5" transform="translate(331 98)" fill="rgba(83,206,248,0.46)"/>
      </g>
      <g transform="translate(-331 -5)">
        <circle id="Ellipse_1-34" data-name="Ellipse 1" cx="5.5" cy="5.5" r="5.5" transform="translate(331 98)" fill="rgba(83,206,248,0.46)"/>
      </g>
      <g transform="translate(-300 -5)">
        <circle id="Ellipse_1-35" data-name="Ellipse 1" cx="5.5" cy="5.5" r="5.5" transform="translate(331 98)" fill="rgba(83,206,248,0.46)"/>
      </g>
      <g transform="translate(-269 -5)">
        <circle id="Ellipse_1-36" data-name="Ellipse 1" cx="5.5" cy="5.5" r="5.5" transform="translate(331 98)" fill="rgba(83,206,248,0.46)"/>
      </g>
      <g transform="translate(-238 -5)">
        <circle id="Ellipse_1-37" data-name="Ellipse 1" cx="5.5" cy="5.5" r="5.5" transform="translate(331 98)" fill="rgba(83,206,248,0.46)"/>
      </g>
      <g transform="translate(-207 -5)">
        <circle id="Ellipse_1-38" data-name="Ellipse 1" cx="5.5" cy="5.5" r="5.5" transform="translate(331 98)" fill="rgba(83,206,248,0.46)"/>
      </g>
      <g transform="translate(-176 -5)">
        <circle id="Ellipse_1-39" data-name="Ellipse 1" cx="5.5" cy="5.5" r="5.5" transform="translate(331 98)" fill="rgba(83,206,248,0.46)"/>
      </g>
      <g transform="translate(-145 -5)">
        <circle id="Ellipse_1-40" data-name="Ellipse 1" cx="5.5" cy="5.5" r="5.5" transform="translate(331 98)" fill="rgba(83,206,248,0.46)"/>
      </g>
      <g transform="translate(-114 -5)">
        <circle id="Ellipse_1-41" data-name="Ellipse 1" cx="5.5" cy="5.5" r="5.5" transform="translate(331 98)" fill="rgba(83,206,248,0.46)"/>
      </g>
      <g transform="translate(-83 -5)">
        <circle id="Ellipse_1-42" data-name="Ellipse 1" cx="5.5" cy="5.5" r="5.5" transform="translate(331 98)" fill="rgba(83,206,248,0.46)"/>
      </g>
      <g transform="translate(-52 -5)">
        <circle id="Ellipse_1-43" data-name="Ellipse 1" cx="5.5" cy="5.5" r="5.5" transform="translate(331 98)" fill="rgba(83,206,248,0.46)"/>
      </g>
      <g transform="translate(-21 -5)">
        <circle id="Ellipse_1-44" data-name="Ellipse 1" cx="5.5" cy="5.5" r="5.5" transform="translate(331 98)" fill="rgba(83,206,248,0.46)"/>
      </g>
      <g transform="translate(-331 26)">
        <circle id="Ellipse_1-45" data-name="Ellipse 1" cx="5.5" cy="5.5" r="5.5" transform="translate(331 98)" fill="rgba(83,206,248,0.46)"/>
      </g>
      <g transform="translate(-300 26)">
        <circle id="Ellipse_1-46" data-name="Ellipse 1" cx="5.5" cy="5.5" r="5.5" transform="translate(331 98)" fill="rgba(83,206,248,0.46)"/>
      </g>
      <g transform="translate(-269 26)">
        <circle id="Ellipse_1-47" data-name="Ellipse 1" cx="5.5" cy="5.5" r="5.5" transform="translate(331 98)" fill="rgba(83,206,248,0.46)"/>
      </g>
      <g transform="translate(-238 26)">
        <circle id="Ellipse_1-48" data-name="Ellipse 1" cx="5.5" cy="5.5" r="5.5" transform="translate(331 98)" fill="rgba(83,206,248,0.46)"/>
      </g>
      <g transform="translate(-207 26)">
        <circle id="Ellipse_1-49" data-name="Ellipse 1" cx="5.5" cy="5.5" r="5.5" transform="translate(331 98)" fill="rgba(83,206,248,0.46)"/>
      </g>
      <g transform="translate(-176 26)">
        <circle id="Ellipse_1-50" data-name="Ellipse 1" cx="5.5" cy="5.5" r="5.5" transform="translate(331 98)" fill="rgba(83,206,248,0.46)"/>
      </g>
      <g transform="translate(-145 26)">
        <circle id="Ellipse_1-51" data-name="Ellipse 1" cx="5.5" cy="5.5" r="5.5" transform="translate(331 98)" fill="rgba(83,206,248,0.46)"/>
      </g>
      <g transform="translate(-114 26)">
        <circle id="Ellipse_1-52" data-name="Ellipse 1" cx="5.5" cy="5.5" r="5.5" transform="translate(331 98)" fill="rgba(83,206,248,0.46)"/>
      </g>
      <g transform="translate(-83 26)">
        <circle id="Ellipse_1-53" data-name="Ellipse 1" cx="5.5" cy="5.5" r="5.5" transform="translate(331 98)" fill="rgba(83,206,248,0.46)"/>
      </g>
      <g transform="translate(-52 26)">
        <circle id="Ellipse_1-54" data-name="Ellipse 1" cx="5.5" cy="5.5" r="5.5" transform="translate(331 98)" fill="rgba(83,206,248,0.46)"/>
      </g>
      <g transform="translate(-21 26)">
        <circle id="Ellipse_1-55" data-name="Ellipse 1" cx="5.5" cy="5.5" r="5.5" transform="translate(331 98)" fill="rgba(83,206,248,0.46)"/>
      </g>
      <g transform="translate(-331 57)">
        <circle id="Ellipse_1-56" data-name="Ellipse 1" cx="5.5" cy="5.5" r="5.5" transform="translate(331 98)" fill="rgba(83,206,248,0.46)"/>
      </g>
      <g transform="translate(-300 57)">
        <circle id="Ellipse_1-57" data-name="Ellipse 1" cx="5.5" cy="5.5" r="5.5" transform="translate(331 98)" fill="rgba(83,206,248,0.46)"/>
      </g>
      <g transform="translate(-269 57)">
        <circle id="Ellipse_1-58" data-name="Ellipse 1" cx="5.5" cy="5.5" r="5.5" transform="translate(331 98)" fill="rgba(83,206,248,0.46)"/>
      </g>
      <g transform="translate(-238 57)">
        <circle id="Ellipse_1-59" data-name="Ellipse 1" cx="5.5" cy="5.5" r="5.5" transform="translate(331 98)" fill="rgba(83,206,248,0.46)"/>
      </g>
      <g transform="translate(-207 57)">
        <circle id="Ellipse_1-60" data-name="Ellipse 1" cx="5.5" cy="5.5" r="5.5" transform="translate(331 98)" fill="rgba(83,206,248,0.46)"/>
      </g>
      <g transform="translate(-176 57)">
        <circle id="Ellipse_1-61" data-name="Ellipse 1" cx="5.5" cy="5.5" r="5.5" transform="translate(331 98)" fill="rgba(83,206,248,0.46)"/>
      </g>
      <g transform="translate(-145 57)">
        <circle id="Ellipse_1-62" data-name="Ellipse 1" cx="5.5" cy="5.5" r="5.5" transform="translate(331 98)" fill="rgba(83,206,248,0.46)"/>
      </g>
      <g transform="translate(-114 57)">
        <circle id="Ellipse_1-63" data-name="Ellipse 1" cx="5.5" cy="5.5" r="5.5" transform="translate(331 98)" fill="rgba(83,206,248,0.46)"/>
      </g>
      <g transform="translate(-83 57)">
        <circle id="Ellipse_1-64" data-name="Ellipse 1" cx="5.5" cy="5.5" r="5.5" transform="translate(331 98)" fill="rgba(83,206,248,0.46)"/>
      </g>
      <g transform="translate(-52 57)">
        <circle id="Ellipse_1-65" data-name="Ellipse 1" cx="5.5" cy="5.5" r="5.5" transform="translate(331 98)" fill="rgba(83,206,248,0.46)"/>
      </g>
      <g transform="translate(-21 57)">
        <circle id="Ellipse_1-66" data-name="Ellipse 1" cx="5.5" cy="5.5" r="5.5" transform="translate(331 98)" fill="rgba(83,206,248,0.46)"/>
      </g>
      <g transform="translate(-331 88)">
        <circle id="Ellipse_1-67" data-name="Ellipse 1" cx="5.5" cy="5.5" r="5.5" transform="translate(331 98)" fill="rgba(83,206,248,0.46)"/>
      </g>
      <g transform="translate(-300 88)">
        <circle id="Ellipse_1-68" data-name="Ellipse 1" cx="5.5" cy="5.5" r="5.5" transform="translate(331 98)" fill="rgba(83,206,248,0.46)"/>
      </g>
      <g transform="translate(-269 88)">
        <circle id="Ellipse_1-69" data-name="Ellipse 1" cx="5.5" cy="5.5" r="5.5" transform="translate(331 98)" fill="rgba(83,206,248,0.46)"/>
      </g>
      <g transform="translate(-238 88)">
        <circle id="Ellipse_1-70" data-name="Ellipse 1" cx="5.5" cy="5.5" r="5.5" transform="translate(331 98)" fill="rgba(83,206,248,0.46)"/>
      </g>
      <g transform="translate(-207 88)">
        <circle id="Ellipse_1-71" data-name="Ellipse 1" cx="5.5" cy="5.5" r="5.5" transform="translate(331 98)" fill="rgba(83,206,248,0.46)"/>
      </g>
      <g transform="translate(-176 88)">
        <circle id="Ellipse_1-72" data-name="Ellipse 1" cx="5.5" cy="5.5" r="5.5" transform="translate(331 98)" fill="rgba(83,206,248,0.46)"/>
      </g>
      <g transform="translate(-145 88)">
        <circle id="Ellipse_1-73" data-name="Ellipse 1" cx="5.5" cy="5.5" r="5.5" transform="translate(331 98)" fill="rgba(83,206,248,0.46)"/>
      </g>
      <g transform="translate(-114 88)">
        <circle id="Ellipse_1-74" data-name="Ellipse 1" cx="5.5" cy="5.5" r="5.5" transform="translate(331 98)" fill="rgba(83,206,248,0.46)"/>
      </g>
      <g transform="translate(-83 88)">
        <circle id="Ellipse_1-75" data-name="Ellipse 1" cx="5.5" cy="5.5" r="5.5" transform="translate(331 98)" fill="rgba(83,206,248,0.46)"/>
      </g>
      <g transform="translate(-52 88)">
        <circle id="Ellipse_1-76" data-name="Ellipse 1" cx="5.5" cy="5.5" r="5.5" transform="translate(331 98)" fill="rgba(83,206,248,0.46)"/>
      </g>
      <g transform="translate(-21 88)">
        <circle id="Ellipse_1-77" data-name="Ellipse 1" cx="5.5" cy="5.5" r="5.5" transform="translate(331 98)" fill="rgba(83,206,248,0.46)"/>
      </g>
    </g>
    <path id="Path_1" data-name="Path 1" d="M2273,1258l351.242,334.517H2273Z" transform="translate(-2273 -824.517)" fill="#53cef8"/>
    <rect id="Rectangle_13" data-name="Rectangle 13" width="413" height="26" transform="translate(953 722)" fill="#53cef8"/>
    <rect id="Rectangle_14" data-name="Rectangle 14" width="1381" height="33" transform="translate(-15)" fill="#fff"/>
  </g>
</svg>
